<?xml version="1.0" standalone="no"?>
<!DOCTYPE svg PUBLIC "-//W3C//DTD SVG 20010904//EN"
 "http://www.w3.org/TR/2001/REC-SVG-20010904/DTD/svg10.dtd">
<svg version="1.0" xmlns="http://www.w3.org/2000/svg"
 width="2048.000000pt" height="2048.000000pt" viewBox="0 0 2048.000000 2048.000000"
 preserveAspectRatio="xMidYMid meet">
<metadata>
Created by potrace 1.14, written by Peter Selinger 2001-2017
</metadata>
<g transform="translate(0.000000,2048.000000) scale(0.100000,-0.100000)"
fill="#000000" stroke="none">
<path d="M0 11384 c0 -8071 2 -9097 15 -9110 19 -19 19 -54 0 -124 -13 -47
-15 -211 -15 -1102 l0 -1048 10240 0 10240 0 -3 1173 c-1 644 -6 1186 -9 1202
-4 17 -11 43 -17 58 -18 46 -14 84 9 90 20 5 20 14 20 8981 l0 8976 -10240 0
-10240 0 0 -9096z m9480 7896 c34 -9 99 -16 230 -26 36 -3 76 -9 90 -14 43
-16 162 -37 182 -32 10 2 18 -1 18 -7 0 -6 14 -11 31 -11 16 0 51 -6 77 -14
63 -19 183 -48 202 -48 8 -1 20 -4 25 -8 9 -7 32 -13 95 -24 14 -2 43 -11 65
-19 22 -8 61 -17 88 -21 26 -4 47 -12 47 -18 0 -5 6 -8 14 -5 7 3 26 -1 40 -9
15 -7 39 -15 54 -18 15 -2 28 -5 30 -6 1 -2 7 -4 12 -5 6 -1 11 -3 13 -5 3 -2
23 -7 61 -15 16 -3 37 -10 47 -15 9 -6 55 -21 101 -36 45 -14 94 -33 107 -41
14 -9 20 -10 16 -3 -6 9 -2 9 14 0 12 -6 35 -9 50 -5 23 5 29 2 34 -14 3 -13
13 -21 25 -21 12 0 23 -4 26 -9 3 -5 23 -12 43 -16 21 -4 44 -11 51 -17 6 -6
12 -7 12 -3 0 5 9 0 19 -9 11 -10 25 -15 30 -11 6 3 11 2 11 -3 0 -10 45 -32
76 -36 10 -2 20 -8 22 -14 2 -7 8 -12 14 -12 23 0 297 -145 380 -202 32 -21
58 -37 58 -34 0 2 14 -9 31 -24 16 -16 40 -32 52 -36 12 -4 29 -15 38 -25 9
-10 19 -16 23 -12 3 3 6 1 6 -5 0 -7 7 -12 15 -12 9 0 18 -7 21 -15 4 -8 12
-15 20 -15 8 0 14 -4 14 -9 0 -5 16 -19 35 -31 20 -12 42 -29 50 -37 8 -8 15
-12 15 -8 0 3 16 -10 37 -30 20 -19 41 -35 47 -35 6 0 28 -18 50 -40 21 -22
43 -40 49 -40 5 0 19 -9 31 -20 39 -38 106 -92 106 -87 0 3 12 -6 28 -19 40
-38 112 -95 197 -159 41 -32 80 -66 86 -76 5 -10 13 -18 17 -17 8 3 91 -72
175 -159 34 -35 65 -63 70 -63 11 0 59 -51 127 -134 25 -30 50 -55 56 -55 6
-1 29 -27 52 -58 22 -32 53 -72 69 -89 31 -34 73 -90 73 -98 0 -8 60 -95 71
-101 5 -4 7 -10 4 -15 -3 -4 2 -11 11 -14 8 -3 12 -10 9 -16 -3 -6 1 -13 9
-16 9 -3 13 -10 10 -15 -3 -5 0 -9 5 -9 6 0 11 -7 11 -15 0 -8 4 -15 9 -15 7
0 20 -26 25 -52 0 -4 9 -17 19 -28 9 -11 17 -25 17 -30 0 -15 50 -110 76 -146
13 -17 21 -34 18 -37 -5 -5 33 -84 53 -107 7 -8 13 -18 13 -23 0 -6 47 -101
78 -157 5 -8 19 -36 32 -62 12 -27 27 -48 31 -48 5 0 6 -7 3 -15 -4 -8 -1 -15
6 -15 6 0 8 -5 5 -10 -3 -6 1 -17 9 -26 9 -8 17 -22 17 -30 2 -23 4 -28 14
-44 5 -8 10 -22 10 -30 0 -8 5 -22 10 -30 5 -8 10 -17 10 -20 3 -21 29 -117
34 -125 4 -5 13 -35 20 -65 8 -30 18 -60 23 -67 5 -7 7 -17 4 -22 -6 -8 15
-114 31 -161 3 -8 6 -31 8 -50 6 -70 27 -195 35 -205 4 -5 8 -28 8 -50 0 -22
8 -89 17 -150 23 -152 36 -420 29 -605 -4 -85 -8 -202 -9 -260 -2 -58 -7 -199
-11 -313 -4 -144 -3 -215 4 -230 10 -19 19 -111 21 -206 1 -12 4 -28 8 -35 4
-6 9 -22 10 -36 1 -14 7 -47 13 -75 6 -27 11 -58 11 -67 0 -10 4 -18 8 -18 5
0 6 -11 3 -25 -2 -15 0 -25 7 -25 7 0 10 -4 6 -9 -3 -5 -1 -31 5 -57 6 -26 12
-59 15 -73 10 -70 25 -142 30 -151 3 -5 8 -40 11 -77 2 -37 9 -72 13 -77 11
-14 19 -154 22 -421 4 -221 -6 -382 -23 -402 -5 -7 -7 -16 -5 -20 3 -5 -1 -33
-9 -63 -8 -30 -16 -73 -19 -95 -3 -22 -12 -65 -20 -95 -8 -30 -15 -67 -15 -82
0 -15 -4 -29 -9 -32 -5 -3 -12 -27 -16 -53 -4 -26 -16 -71 -27 -100 -10 -29
-17 -57 -14 -62 4 -5 2 -12 -4 -16 -5 -3 -10 -19 -10 -35 0 -15 -4 -30 -10
-32 -5 -2 -11 -13 -13 -25 -2 -12 -6 -26 -10 -29 -4 -4 -7 -16 -7 -26 0 -10
-7 -29 -15 -42 -9 -13 -15 -28 -13 -32 1 -5 -5 -25 -14 -44 -26 -58 -48 -120
-42 -120 3 0 -4 -13 -15 -29 -12 -16 -21 -36 -21 -44 0 -8 -7 -20 -15 -27 -9
-7 -13 -15 -10 -18 3 -3 0 -11 -6 -19 -6 -7 -8 -13 -3 -13 4 0 -2 -10 -13 -22
-11 -13 -23 -36 -27 -51 -4 -15 -15 -35 -26 -44 -10 -9 -17 -20 -14 -25 3 -4
1 -8 -5 -8 -6 0 -19 -19 -29 -42 -10 -24 -26 -49 -35 -57 -10 -7 -17 -20 -17
-27 0 -8 -4 -14 -9 -14 -5 0 -13 -10 -17 -22 -6 -23 -17 -36 -61 -82 -13 -13
-23 -29 -23 -35 0 -6 -7 -14 -15 -17 -8 -4 -15 -15 -15 -25 0 -10 -11 -26 -24
-34 -13 -9 -27 -24 -30 -33 -14 -39 -63 -121 -69 -116 -3 4 -9 -7 -13 -22 -4
-16 -15 -41 -25 -56 -11 -14 -19 -31 -19 -37 0 -6 -4 -11 -10 -11 -5 0 -10 -9
-10 -20 0 -11 -4 -28 -9 -38 -26 -47 -51 -110 -51 -126 0 -19 -17 -17 -75 9
-36 16 -187 47 -206 43 -10 -2 -15 9 -17 35 -3 34 -1 37 23 37 22 0 26 3 20
18 -19 43 -18 73 4 88 13 10 21 26 21 44 0 16 5 32 10 35 6 4 8 21 4 41 -5 29
-3 38 15 50 11 8 21 21 21 28 0 16 22 26 53 26 30 0 70 48 62 77 -4 16 -2 21
9 17 18 -7 29 25 15 42 -8 10 -8 14 0 14 6 0 11 -5 11 -12 0 -6 19 7 43 29 23
23 58 56 77 74 19 19 41 42 48 51 25 32 -14 14 -64 -30 -27 -23 -54 -42 -61
-42 -7 0 -13 -8 -14 -17 0 -14 -2 -15 -6 -3 -3 8 -12 19 -19 23 -26 15 -14 37
39 71 53 34 99 80 133 131 21 33 18 31 -58 -22 -27 -18 -65 -36 -85 -39 -21
-3 -42 -12 -48 -20 -32 -49 -32 -49 -46 -23 -7 13 -14 61 -16 109 -5 163 -16
201 -41 144 -9 -17 -10 -55 -6 -118 6 -79 4 -94 -11 -109 -29 -30 -112 -4
-155 48 -7 9 -19 37 -25 63 -7 27 -18 47 -26 47 -16 0 -59 -72 -59 -98 0 -21
-26 -72 -53 -103 -10 -12 -20 -36 -22 -53 -4 -32 -38 -85 -48 -75 -3 3 -15 0
-27 -6 -19 -10 -26 -9 -41 6 -26 27 -36 74 -15 74 19 0 22 20 4 20 -8 0 -5 7
6 15 11 8 18 16 15 18 -2 1 -17 9 -32 17 -25 12 -30 12 -38 0 -6 -11 -3 -20
11 -32 25 -21 25 -35 0 -43 -24 -8 -60 11 -60 30 0 8 -6 15 -13 15 -19 0 -57
-29 -57 -44 0 -24 -43 -35 -78 -20 -32 13 -34 29 -11 60 5 6 6 14 2 18 -4 4 3
15 16 25 l24 18 -39 6 c-45 8 -61 -4 -70 -49 -4 -21 -1 -36 10 -47 9 -8 16
-24 16 -35 0 -18 20 -31 76 -46 29 -9 48 -66 32 -101 -9 -21 -9 -28 1 -35 11
-6 10 -12 -7 -30 -19 -21 -21 -21 -31 -3 -6 10 -11 13 -11 6 0 -6 -12 -13 -27
-15 -21 -2 -29 -9 -31 -28 -2 -17 -13 -30 -32 -38 -35 -16 -50 -9 -50 22 0 29
-18 46 -48 46 -22 0 -51 -23 -52 -42 0 -3 14 -11 30 -17 28 -9 31 -14 28 -48
l-3 -38 46 3 c32 3 49 -1 59 -12 9 -12 22 -15 46 -10 22 4 34 2 34 -5 0 -6 -4
-11 -10 -11 -5 0 -10 -11 -10 -25 0 -30 -14 -32 -37 -6 -15 18 -19 19 -45 5
-21 -11 -28 -22 -28 -44 0 -25 -4 -30 -23 -30 -16 0 -28 9 -35 25 -14 30 -37
32 -52 5 -6 -11 -17 -20 -25 -20 -8 0 -15 -7 -15 -15 0 -8 -4 -15 -10 -15 -5
0 -10 -6 -10 -14 0 -18 -39 -31 -52 -18 -6 6 -4 15 6 25 9 9 16 23 16 32 0 8
11 20 25 25 14 5 25 14 25 20 0 14 -39 37 -78 45 l-32 7 5 -74 c3 -40 8 -88
10 -107 2 -27 -3 -40 -26 -63 -17 -17 -28 -38 -26 -51 2 -26 -27 -35 -50 -15
-9 7 -21 13 -27 13 -6 1 -24 5 -39 9 -39 12 -56 -6 -28 -30 26 -23 26 -35 1
-76 -31 -51 -142 -78 -153 -37 -4 15 -11 20 -22 15 -9 -3 -26 -1 -37 5 -14 8
-23 8 -31 0 -6 -6 -24 -11 -39 -11 -35 0 -46 -24 -24 -49 12 -13 14 -21 7 -26
-14 -8 -31 2 -31 20 0 7 -7 21 -16 29 -14 14 -18 14 -45 0 -16 -8 -34 -27 -40
-41 -8 -21 -14 -24 -37 -20 -32 6 -82 -17 -82 -38 0 -19 -8 -19 -27 0 -8 9
-23 15 -32 13 -21 -4 -27 -38 -6 -38 36 0 24 -73 -15 -83 -17 -4 -22 0 -27 25
l-6 31 -15 -29 c-8 -15 -11 -29 -6 -31 36 -13 38 -22 9 -45 -16 -13 -35 -23
-42 -23 -23 0 -27 -16 -6 -21 30 -8 18 -31 -19 -39 -25 -6 -35 -2 -64 26 -18
18 -39 48 -45 66 -6 18 -15 31 -19 28 -5 -3 -12 10 -16 29 -4 22 -13 38 -25
41 -27 9 -59 58 -49 75 12 20 1 33 -15 20 -16 -14 -35 -5 -35 16 0 8 -7 14
-15 14 -12 0 -14 -8 -9 -39 8 -47 1 -52 -74 -56 -31 -2 -63 -4 -69 -4 -7 -1
-22 -10 -34 -22 l-21 -21 -29 21 c-34 25 -49 20 -49 -16 0 -25 -1 -26 -60 -20
-67 6 -74 -2 -43 -50 l18 -26 -31 6 c-17 3 -36 1 -42 -5 -16 -16 -3 -38 24
-38 29 0 31 -21 5 -37 -28 -17 -61 -5 -61 23 0 12 -4 25 -9 28 -15 9 -18 82
-4 95 24 22 15 48 -18 55 -32 6 -33 12 -14 59 5 11 3 17 -6 17 -18 0 -49 -30
-49 -47 0 -8 -9 -22 -21 -32 l-21 -16 23 -20 22 -20 -5 22 c-4 15 -2 20 7 16
28 -10 29 -53 0 -53 -18 0 -28 -30 -14 -46 20 -25 2 -47 -34 -42 -17 3 -39 8
-47 12 -12 5 -18 -3 -26 -33 -6 -22 -7 -46 -3 -53 21 -33 9 -73 -36 -116 -48
-46 -54 -59 -31 -68 15 -6 56 28 56 46 0 17 36 11 54 -9 17 -18 17 -21 0 -45
-17 -27 -41 -28 -71 -4 -25 20 -24 -15 2 -52 28 -41 26 -65 -6 -55 -14 5 -20
0 -25 -19 -9 -36 -25 -37 -81 -9 l-50 26 -22 -22 c-11 -11 -32 -21 -45 -21
-13 0 -26 -7 -30 -15 -3 -8 -13 -15 -22 -15 -11 0 -14 -5 -9 -17 4 -10 10 -26
13 -36 3 -12 11 -17 23 -14 11 3 21 1 24 -3 3 -5 -8 -11 -25 -15 -28 -6 -30
-9 -28 -47 4 -50 -20 -72 -49 -46 -27 24 -73 34 -84 17 -6 -10 -10 -5 -15 18
-10 52 -94 94 -94 49 0 -8 8 -16 19 -19 14 -3 18 -13 16 -41 -3 -49 -19 -65
-37 -37 -15 24 -28 26 -74 9 -29 -10 -36 -9 -53 6 -27 24 -41 13 -38 -32 2
-31 6 -37 24 -37 29 0 36 -10 18 -25 -18 -15 -20 -50 -2 -50 32 -1 38 -16 27
-66 -16 -73 -19 -79 -32 -66 -8 8 -8 15 2 26 15 19 6 46 -15 46 -12 0 -14 4
-5 19 14 27 13 31 -9 31 -41 0 -59 -64 -27 -99 18 -20 20 -31 6 -31 -14 0 -60
53 -60 70 -1 12 -3 11 -11 -2 -13 -23 -37 -23 -61 -1 -15 13 -21 14 -31 4 -9
-10 -8 -14 6 -22 11 -6 17 -22 17 -44 0 -19 5 -37 10 -40 16 -10 12 -33 -10
-55 -11 -11 -20 -27 -20 -35 0 -18 -36 -20 -43 -2 -2 6 0 23 5 36 5 14 7 30 4
38 -6 15 -42 18 -51 3 -4 -6 -12 -10 -18 -8 -7 1 -22 -2 -35 -6 -17 -6 -27 -3
-36 10 -14 19 -36 12 -36 -12 0 -8 9 -14 21 -14 25 0 21 -21 -8 -35 -41 -21
-51 -36 -57 -93 -4 -31 -7 -65 -7 -74 0 -26 -17 -22 -21 4 -2 18 -11 24 -42
28 -36 5 -39 8 -41 39 -2 24 3 39 17 50 21 18 17 46 -9 55 -8 4 -29 -1 -46 -9
-16 -8 -40 -15 -53 -15 -13 0 -26 -4 -29 -10 -11 -18 -25 -10 -25 15 0 27 -18
32 -51 15 -15 -8 -19 -8 -17 2 2 7 -3 12 -11 10 -8 -2 -27 2 -44 7 -16 6 -33
9 -37 6 -14 -9 2 -46 24 -55 21 -9 21 -9 1 -9 -12 -1 -26 4 -33 11 -9 9 -12 8
-12 -8 0 -14 -13 -23 -50 -36 -48 -15 -50 -15 -50 3 0 16 -3 17 -24 8 -14 -7
-22 -17 -19 -25 3 -9 -2 -14 -16 -14 -12 0 -21 5 -21 10 0 6 -6 10 -14 10 -8
0 -16 10 -18 22 -4 33 -35 34 -59 4 -24 -31 -42 -25 -33 10 5 19 2 24 -14 24
-13 0 -22 -8 -24 -21 -2 -12 -10 -25 -18 -29 -8 -4 -25 -12 -37 -18 -29 -15
-50 -15 -55 0 -3 9 -9 8 -22 -5 -28 -28 -45 -20 -65 31 -15 37 -9 51 13 33 21
-17 37 -4 30 23 -4 16 0 25 10 29 9 4 16 12 16 18 0 8 -14 9 -45 5 -37 -6 -50
-4 -71 13 -15 12 -30 21 -33 21 -11 0 -12 -116 -1 -145 14 -37 -1 -55 -30 -37
-24 14 -60 16 -60 2 0 -17 -48 -23 -64 -7 -13 13 -13 17 0 35 8 12 21 19 29
15 9 -3 29 0 45 7 24 10 29 17 24 34 -10 36 -34 48 -60 31 -14 -9 -34 -12 -51
-9 -37 7 -81 -30 -62 -52 6 -8 9 -17 7 -20 -9 -9 -88 30 -88 43 0 7 -10 17
-21 24 -17 9 -23 8 -30 -2 -5 -8 -9 -17 -9 -21 0 -4 -9 -10 -20 -13 -11 -3
-20 -15 -20 -26 0 -10 -7 -19 -15 -19 -17 0 -20 25 -5 35 15 9 12 55 -3 55 -7
0 -19 -6 -26 -12 -10 -11 -15 -10 -24 2 -13 17 -63 25 -72 11 -3 -5 2 -17 11
-26 14 -13 15 -21 5 -41 -6 -14 -9 -29 -6 -34 9 -15 -19 -91 -37 -101 -25 -13
-68 6 -68 31 0 12 -6 20 -12 18 -17 -4 -21 3 -12 25 4 10 2 23 -5 30 -17 17
-13 44 8 64 10 10 21 30 25 46 8 35 -14 46 -49 23 -23 -15 -55 -13 -55 5 0 5
-7 9 -15 9 -8 0 -15 -7 -15 -15 0 -8 -7 -15 -15 -15 -10 0 -15 10 -15 33 0 17
-5 39 -10 47 -7 11 -4 18 12 26 12 6 16 14 11 17 -6 4 -28 -7 -48 -23 -21 -17
-41 -30 -45 -30 -19 0 -32 33 -27 69 6 48 -14 81 -49 81 -27 0 -32 21 -10 39
10 9 25 9 53 3 89 -23 103 -23 103 -2 0 21 -7 23 -53 20 -15 -1 -35 4 -43 11
-9 8 -40 11 -80 10 -39 -1 -71 2 -80 10 -16 13 -19 49 -4 49 22 0 9 40 -15 46
-29 7 -32 29 -9 62 8 12 12 27 8 33 -3 6 0 16 7 21 11 7 11 11 2 14 -7 3 -15
21 -19 40 -6 33 -8 34 -42 32 -36 -3 -36 -3 -34 34 l3 37 -30 -15 c-17 -9 -36
-24 -42 -35 -13 -26 -29 -15 -29 21 0 27 5 30 73 51 39 12 80 27 90 33 15 9
23 5 49 -26 16 -21 39 -38 49 -38 21 0 25 -20 7 -38 -17 -17 23 -58 47 -48 15
5 17 15 11 67 -6 53 -5 60 10 57 9 -2 19 3 21 10 3 6 -2 12 -11 12 -20 0 -21
14 -1 30 11 10 20 6 47 -19 48 -45 65 -41 28 6 -11 14 -18 29 -15 33 8 13 59
19 73 8 14 -12 16 -48 2 -48 -23 0 -7 -28 25 -43 19 -9 35 -21 35 -27 0 -5 5
-10 10 -10 6 0 8 11 4 25 -5 20 1 31 25 54 38 36 39 43 4 41 -45 -3 -53 -1
-53 16 0 14 8 16 54 11 l54 -5 7 31 c4 18 7 47 8 64 0 24 4 30 12 23 16 -13
75 -1 75 15 0 7 7 18 15 25 13 11 19 9 38 -7 12 -11 30 -23 40 -26 10 -4 15
-11 12 -17 -3 -5 3 -10 15 -10 12 0 19 -4 16 -9 -3 -5 -16 -7 -27 -4 -19 5
-20 4 -10 -15 6 -11 16 -24 21 -27 17 -11 49 5 56 28 3 12 17 36 30 54 28 37
29 43 8 43 -8 0 -12 -4 -9 -10 3 -5 2 -10 -4 -10 -16 0 -43 47 -39 66 4 25 60
38 74 19 6 -8 17 -15 24 -15 9 0 11 -11 6 -38 -5 -34 -3 -40 18 -52 31 -16 54
-8 65 23 10 26 29 37 66 37 12 0 25 7 29 15 9 25 29 18 22 -9 -8 -34 3 -38 40
-15 36 22 74 18 74 -7 0 -8 7 -14 15 -14 8 0 15 5 15 10 0 6 7 10 15 10 8 0
15 5 15 10 0 6 11 16 25 22 14 6 25 17 25 24 0 24 23 27 41 5 10 -12 20 -17
24 -11 11 18 52 11 68 -13 l16 -22 0 22 c1 12 -8 27 -19 33 -12 7 -20 21 -20
37 0 14 -13 55 -30 90 -16 34 -30 67 -30 72 0 11 56 66 68 66 45 3 74 43 52
70 -18 22 -43 19 -35 -4 3 -10 -1 -24 -10 -31 -22 -19 -45 5 -45 46 0 19 -3
34 -7 35 -5 0 -19 2 -33 5 -87 14 -132 13 -162 -2 -39 -20 -175 -14 -189 8 -7
10 -9 10 -9 1 0 -7 -5 -13 -11 -13 -7 0 -9 9 -5 24 5 19 -2 30 -39 61 -50 40
-69 40 -87 0 -14 -31 -20 -31 -33 -2 -7 15 -18 22 -37 22 -29 -1 -36 13 -18
31 15 15 -13 36 -50 38 -16 0 -32 6 -35 13 -6 17 -35 17 -36 1 -3 -28 3 -44
23 -59 20 -15 20 -17 3 -43 -10 -14 -27 -29 -39 -32 -32 -8 -100 40 -122 87
-11 21 -28 42 -39 45 -42 14 -47 55 -9 73 18 8 30 8 38 2 8 -7 28 -2 62 15 55
28 100 29 98 2 -1 -10 2 -18 7 -18 5 0 6 -7 3 -14 -9 -23 65 -15 82 8 11 15
21 17 53 12 23 -3 42 -2 46 4 4 6 10 8 14 5 5 -2 23 0 42 5 19 6 60 7 92 4 54
-6 57 -8 55 -32 -2 -18 2 -27 15 -30 11 -2 17 3 17 16 0 25 23 44 44 36 9 -3
22 -2 29 4 6 5 27 13 45 17 22 4 36 15 42 31 11 28 32 31 51 8 7 -8 21 -13 31
-11 13 4 18 0 18 -14 0 -25 30 -37 41 -17 6 12 21 15 56 12 27 -2 51 -3 55 -4
4 0 16 -9 26 -20 25 -27 137 -47 159 -28 9 7 32 14 52 15 20 1 60 5 90 9 51 6
54 5 48 -15 -7 -28 14 -43 81 -56 55 -11 57 -13 60 -45 2 -18 10 -39 18 -47
10 -11 11 -19 3 -34 -8 -15 -5 -26 12 -51 16 -21 24 -27 27 -18 3 8 0 16 -6
18 -16 5 -14 33 3 56 8 11 15 28 15 38 0 21 4 22 31 7 17 -8 23 -7 34 8 12 15
17 16 34 6 14 -9 28 -10 49 -2 19 7 37 6 56 -1 15 -5 53 -10 85 -10 50 0 61
-3 73 -22 13 -19 18 -21 31 -10 8 7 18 24 21 37 7 28 21 32 33 11 5 -8 27 -16
53 -18 44 -3 45 -4 45 -37 0 -19 6 -36 13 -38 6 -3 12 2 12 10 0 21 35 48 54
41 16 -6 86 -103 86 -120 0 -5 5 -16 10 -24 8 -13 11 -13 22 2 7 10 28 19 46
20 17 1 32 8 32 14 0 7 7 20 16 29 15 15 18 15 35 -1 15 -14 24 -15 42 -7 12
6 30 14 40 17 10 3 15 11 12 16 -4 6 1 22 10 36 12 18 15 36 10 60 -6 37 1 74
15 74 4 0 11 -15 14 -34 4 -19 14 -40 23 -47 15 -13 15 -10 9 24 -5 26 -3 44
5 54 8 9 9 17 3 21 -16 12 -44 60 -44 77 0 9 7 18 15 21 8 4 15 12 15 19 0 8
6 20 14 28 8 8 18 41 23 73 8 57 10 59 37 57 27 -2 27 -1 12 16 -9 10 -16 30
-16 45 0 23 3 26 20 21 17 -6 20 -2 20 29 0 23 8 44 25 62 28 31 29 34 14 68
-9 19 -8 35 7 75 10 30 24 51 33 51 11 0 10 5 -5 21 -13 15 -15 23 -7 26 13 5
11 25 -14 141 -15 68 -14 74 2 85 17 13 28 73 16 92 -3 5 -4 23 -2 38 3 29 0
33 -77 113 -32 33 -37 44 -31 63 8 19 4 24 -24 36 -19 8 -39 21 -46 29 -10 12
-8 17 10 27 21 11 22 12 3 22 -10 6 -25 19 -32 29 -7 10 -19 18 -25 18 -7 0
-18 14 -26 31 -7 17 -24 35 -38 40 -18 7 -23 14 -18 28 3 11 -1 26 -11 35 -9
9 -19 29 -23 44 -4 15 -17 32 -30 38 -12 6 -34 30 -49 53 -14 22 -35 44 -44
47 -10 3 -25 18 -32 33 -18 34 -84 115 -99 120 -15 6 -77 69 -77 79 0 5 -11
15 -25 22 -14 8 -28 24 -31 37 -4 13 -10 23 -15 23 -13 0 -49 42 -43 51 2 5
-6 15 -19 24 -13 8 -29 25 -34 38 -6 12 -26 30 -44 39 -153 73 -161 78 -195
112 -16 15 -47 32 -71 39 -25 6 -61 28 -85 50 -39 37 -45 39 -90 35 -27 -3
-51 -8 -55 -11 -3 -4 15 -28 40 -54 25 -26 56 -61 68 -78 39 -53 93 -105 107
-105 8 0 41 -27 74 -59 32 -33 73 -70 91 -84 18 -13 57 -54 87 -91 30 -37 101
-114 158 -171 107 -109 115 -126 90 -180 -6 -14 -17 -25 -24 -25 -8 0 -16 -11
-20 -24 -8 -32 -27 -24 -42 16 -9 25 -9 34 0 39 9 6 6 15 -12 33 -28 31 -38
32 -56 9 -13 -17 -15 -17 -28 0 -19 24 -29 21 -24 -7 5 -22 2 -23 -33 -19 -38
5 -39 4 -58 -38 -11 -24 -20 -38 -20 -31 -1 6 -7 12 -13 12 -7 0 -22 30 -34
68 -20 63 -23 68 -57 76 -25 7 -37 15 -37 27 0 23 -16 33 -23 15 -3 -8 1 -20
9 -26 8 -7 14 -21 14 -31 0 -33 -22 -33 -49 0 l-26 31 -35 -21 c-19 -12 -38
-26 -41 -31 -4 -6 -16 -7 -28 -3 -17 5 -21 14 -19 48 0 23 6 45 12 49 20 13
-20 63 -48 61 -16 -1 -26 5 -29 18 -6 23 -47 26 -47 4 0 -8 7 -33 16 -55 16
-39 14 -70 -5 -70 -5 0 -12 23 -16 50 -8 59 -14 63 -116 85 -92 19 -86 19 -92
-5 -3 -11 -17 -24 -32 -30 -23 -9 -30 -7 -48 16 -19 25 -24 26 -80 20 -53 -5
-61 -4 -77 16 -14 17 -21 20 -31 11 -11 -8 -24 -8 -54 3 -50 17 -58 17 -52 0
3 -8 -1 -22 -8 -33 -13 -17 -14 -17 -29 2 -13 17 -17 18 -25 5 -5 -8 -7 -18
-5 -22 8 -13 -6 -9 -22 6 -18 19 -54 9 -54 -15 0 -22 -13 -30 -61 -39 -33 -6
-41 -4 -54 16 -21 32 -19 47 8 71 46 42 108 52 352 58 127 3 241 8 255 13 58
16 119 67 161 133 46 70 67 89 111 98 l27 6 -27 42 c-32 50 -63 56 -101 19
-33 -31 -162 -67 -199 -56 -15 5 -43 13 -62 19 -58 17 -245 25 -303 13 -29 -6
-108 -23 -177 -37 -128 -27 -206 -51 -295 -90 -27 -12 -57 -23 -65 -23 -15 -1
-171 -43 -200 -55 -8 -3 -36 -8 -62 -12 l-46 -6 1 38 2 38 -41 -3 c-23 -2 -61
2 -85 8 -37 10 -45 10 -53 -3 -9 -14 -15 -13 -48 5 -21 12 -38 25 -38 30 0 4
-6 8 -14 8 -8 0 -18 9 -21 20 -4 11 -18 28 -33 38 -48 31 -96 83 -142 152 -8
13 -32 41 -52 63 -29 31 -35 43 -27 54 9 9 8 13 0 13 -6 0 -11 -4 -11 -9 0 -5
-20 -25 -45 -46 -54 -44 -74 -42 -127 10 l-36 37 -44 -38 c-23 -21 -45 -40
-48 -42 -2 -1 1 -12 8 -22 7 -11 12 -26 12 -33 0 -15 -61 -47 -89 -47 -19 0
-35 -37 -26 -62 9 -26 -23 -52 -60 -50 -29 2 -35 -1 -35 -17 0 -12 12 -28 26
-38 l26 -17 -33 -27 c-29 -24 -32 -29 -19 -44 12 -14 12 -18 -1 -26 -8 -5 -19
-9 -25 -9 -20 0 -79 -33 -93 -53 -9 -13 -20 -17 -37 -13 -19 5 -24 2 -24 -13
0 -11 5 -23 10 -26 18 -11 11 -21 -24 -33 -26 -10 -35 -20 -40 -44 -5 -27 -1
-35 30 -63 29 -26 33 -33 20 -38 -9 -4 -16 -2 -16 3 0 6 -7 10 -16 10 -10 0
-14 -6 -11 -15 4 -9 -5 -21 -23 -32 -16 -9 -27 -20 -25 -24 3 -4 -2 -10 -11
-13 -9 -3 -14 -12 -11 -20 10 -26 -14 -36 -46 -20 -16 9 -38 13 -49 11 -15 -4
-18 -1 -13 13 7 22 -7 33 -30 24 -15 -6 -15 -8 1 -25 25 -28 8 -41 -50 -38
-58 3 -105 31 -106 63 0 63 -8 93 -33 120 -14 15 -29 36 -32 47 -4 11 -12 16
-21 12 -9 -3 -14 2 -14 17 0 19 2 20 15 10 13 -11 15 -8 15 14 0 15 -5 36 -11
47 -8 16 -13 18 -25 8 -20 -16 -43 15 -44 59 0 18 -6 48 -14 67 -18 43 -18
117 0 160 8 19 14 46 14 60 0 30 74 115 100 115 13 0 17 9 17 40 0 48 19 76
39 59 8 -6 14 -17 14 -25 0 -29 75 -39 106 -13 7 6 41 9 76 9 88 -2 205 10
256 26 23 8 63 14 88 14 52 0 162 28 185 47 8 7 23 13 32 13 9 0 33 9 54 20
21 10 53 20 71 22 18 1 38 8 44 15 7 9 22 11 44 7 25 -5 34 -2 42 13 6 10 33
30 61 43 28 13 51 27 51 32 0 14 33 9 52 -9 14 -12 24 -14 35 -7 23 14 61 92
73 147 5 26 15 68 21 95 6 26 12 63 14 81 1 19 7 37 13 39 7 2 12 23 12 47 0
24 11 67 25 99 14 31 25 65 25 75 0 10 6 23 13 29 7 6 49 84 93 174 120 239
135 274 128 291 -3 8 2 29 10 46 9 16 18 43 20 58 2 15 13 51 26 78 40 91 57
139 64 183 4 24 15 61 26 83 11 21 20 45 20 52 0 19 65 68 110 85 76 27 133
33 204 20 70 -13 70 -13 137 -96 7 -8 9 -31 5 -55 -17 -115 7 -337 49 -462 7
-22 19 -60 25 -85 13 -46 73 -188 113 -269 77 -157 264 -366 458 -514 117 -90
367 -184 544 -206 103 -13 344 1 404 23 24 9 54 16 66 16 25 0 132 38 212 76
28 13 56 24 62 24 5 0 18 11 29 25 12 15 30 25 46 25 16 0 26 6 26 15 0 8 9
15 19 15 18 0 36 25 32 43 -1 5 3 6 8 2 9 -5 46 10 61 25 3 3 14 10 25 16 11
6 23 24 26 40 12 53 39 103 64 120 14 9 25 26 25 38 0 25 65 96 87 96 11 0 13
7 9 23 -9 36 30 76 84 85 44 8 45 9 45 46 0 60 28 76 134 76 47 0 101 -4 120
-10 22 -6 47 -6 75 2 34 9 65 6 184 -16 164 -30 292 -35 273 -12 -13 15 -100
38 -113 30 -4 -2 -40 5 -80 17 -40 11 -90 25 -111 30 -66 16 -127 50 -127 69
0 25 29 33 93 25 28 -4 81 -1 117 5 113 20 203 31 280 34 90 3 160 15 160 27
0 5 -6 9 -14 9 -14 0 -76 52 -76 64 0 3 15 6 34 6 19 0 41 6 48 13 14 15 54
23 183 37 44 5 118 14 165 21 104 15 138 15 215 0 33 -7 87 -16 120 -20 64 -9
137 -42 173 -78 12 -13 31 -23 41 -23 13 0 21 -8 23 -22 2 -18 11 -24 38 -28
24 -3 36 -11 38 -24 3 -16 0 -18 -22 -12 -30 7 -47 -17 -27 -37 6 -6 11 -21
11 -33 0 -12 7 -24 15 -28 19 -7 19 -33 0 -43 -10 -6 -14 -27 -14 -73 0 -139
-1 -154 -11 -160 -18 -11 -1 -76 26 -99 17 -15 24 -31 24 -56 0 -19 4 -35 9
-35 11 0 52 -77 50 -93 -3 -26 2 -37 17 -37 11 0 14 -5 10 -16 -3 -9 3 -27 13
-40 11 -14 22 -49 26 -83 5 -48 11 -61 31 -71 31 -17 31 -32 0 -24 -14 3 -30
3 -36 -1 -15 -10 14 -41 46 -49 14 -4 26 -16 30 -32 9 -34 53 -52 71 -29 14
20 33 11 33 -15 0 -10 5 -22 10 -25 6 -4 9 -13 8 -22 -2 -8 5 -20 15 -27 21
-14 53 4 49 27 -5 29 16 27 49 -3 19 -16 28 -30 22 -30 -6 0 -14 -13 -18 -30
-4 -16 -10 -30 -13 -30 -4 0 -7 -26 -7 -58 0 -48 4 -63 27 -90 15 -18 29 -32
32 -32 3 0 6 15 6 34 0 55 12 97 29 104 25 9 28 17 29 110 3 106 11 173 25
190 6 7 14 32 18 55 12 68 46 150 74 182 15 17 35 45 46 63 11 19 25 32 32 29
7 -2 22 -1 35 4 17 6 22 16 22 44 0 40 12 45 34 13 13 -19 20 -20 43 -12 16 5
36 25 48 47 11 20 33 42 48 48 16 7 26 17 23 25 -7 18 5 26 129 82 82 37 132
53 198 62 96 15 105 22 122 98 3 17 11 32 16 32 12 0 12 77 -1 85 -17 10 -11
61 10 85 19 22 20 37 19 284 -1 144 2 273 6 289 6 21 4 27 -9 27 -9 0 -16 3
-17 8 -7 88 -4 143 7 153 18 15 18 34 -1 49 -14 12 -13 16 7 37 l23 25 -28 20
c-47 34 -28 69 26 49 25 -10 27 -8 27 14 0 17 -7 26 -23 30 -29 8 -46 62 -41
137 4 69 16 96 50 104 24 6 24 9 20 71 -3 44 -10 69 -21 77 -12 9 -17 32 -19
91 -2 59 -9 91 -24 122 -20 38 -22 57 -21 192 0 123 -3 155 -17 183 -10 20
-20 69 -23 123 -6 80 -11 98 -47 166 -23 41 -44 92 -48 112 -9 47 -38 100
-139 253 -26 39 -47 74 -47 77 0 7 -68 104 -110 157 -10 14 -22 42 -25 62 -4
21 -10 38 -14 38 -10 0 -31 69 -31 101 0 13 -7 33 -15 43 -8 11 -15 32 -15 47
0 42 -16 75 -58 121 -22 24 -51 63 -65 88 -14 25 -47 65 -73 90 -26 25 -62 68
-80 95 -47 71 -55 79 -97 100 -41 22 -176 146 -349 323 -61 61 -117 112 -125
112 -8 0 -27 8 -41 19 -15 10 -44 24 -65 31 -24 7 -64 38 -111 86 -40 40 -76
71 -80 67 -3 -3 -6 0 -6 8 0 15 -51 59 -68 59 -11 0 -65 40 -112 84 -21 19
-53 41 -71 49 -19 8 -61 41 -94 74 -33 33 -85 76 -115 96 -30 19 -68 49 -85
67 -16 17 -50 43 -75 58 -25 14 -54 33 -65 42 -20 17 -87 43 -157 61 -21 5
-61 24 -90 42 -48 30 -80 43 -243 102 -27 10 -77 21 -110 26 -59 7 -84 16
-136 44 -14 8 -39 15 -57 17 -17 1 -30 6 -29 11 2 8 -55 30 -168 67 -16 6 -43
10 -58 10 -16 0 -43 6 -60 14 -18 8 -43 17 -57 19 -14 3 -41 10 -60 16 -180
50 -233 61 -306 61 -59 0 -69 3 -111 35 -42 32 -53 35 -103 34 -31 -1 -65 3
-75 8 -11 6 -58 18 -105 27 -47 9 -98 24 -115 34 -25 14 -63 17 -232 19 -112
2 -222 8 -245 14 -83 21 -100 21 -154 4 -36 -11 -69 -15 -95 -11 -45 7 -123
-10 -140 -30 -6 -8 -19 -14 -29 -14 -10 0 -42 -11 -71 -24 -37 -16 -81 -25
-140 -28 -49 -3 -98 -12 -117 -22 -17 -9 -42 -16 -56 -16 -14 0 -51 -11 -82
-25 -31 -14 -67 -25 -81 -25 -13 0 -49 -11 -79 -25 -30 -14 -61 -25 -70 -25
-20 0 -100 -41 -225 -116 -59 -35 -110 -64 -113 -64 -4 0 -32 -20 -64 -45 -31
-25 -63 -45 -69 -45 -7 0 -69 -56 -137 -125 -69 -68 -144 -134 -168 -146 -49
-25 -176 -150 -198 -194 -8 -16 -34 -51 -58 -77 -42 -47 -82 -123 -82 -157 0
-9 -8 -27 -17 -41 -10 -13 -27 -41 -38 -61 -11 -21 -34 -64 -52 -96 -17 -33
-35 -77 -39 -99 -6 -36 -66 -168 -114 -254 -11 -19 -20 -48 -20 -65 0 -16 -9
-54 -20 -83 -11 -29 -20 -63 -20 -77 0 -13 -4 -26 -9 -29 -15 -10 -81 -136
-81 -156 0 -29 -11 -51 -23 -43 -6 4 -7 1 -2 -6 4 -8 -4 -25 -22 -44 -33 -37
-125 -220 -144 -287 -7 -25 -16 -50 -20 -55 -5 -6 -11 -31 -15 -55 -3 -25 -12
-54 -19 -65 -6 -11 -15 -58 -19 -104 -4 -50 -15 -104 -28 -134 -23 -53 -24
-67 -18 -294 2 -89 -1 -141 -9 -161 -11 -26 -10 -34 4 -56 16 -24 16 -27 -2
-50 -10 -14 -21 -26 -25 -26 -5 0 -8 -34 -8 -75 0 -41 -4 -94 -10 -117 -31
-140 -40 -190 -40 -220 0 -53 -80 -188 -112 -188 -4 0 -32 -11 -62 -25 -30
-14 -61 -25 -68 -25 -34 -1 -178 -61 -196 -83 -8 -9 -27 -19 -43 -22 -16 -4
-48 -24 -71 -46 -23 -21 -69 -52 -102 -69 -93 -48 -129 -70 -156 -97 -13 -14
-38 -32 -54 -40 -16 -8 -37 -23 -47 -32 -31 -29 -151 -91 -162 -84 -6 4 -7 1
-2 -7 6 -10 4 -12 -7 -7 -9 3 -25 -1 -36 -8 -10 -8 -22 -12 -25 -8 -3 3 -26
-6 -50 -20 -37 -22 -46 -34 -56 -72 -6 -25 -15 -45 -20 -45 -18 0 -24 -45 -22
-149 2 -115 13 -140 79 -176 17 -10 32 -22 32 -26 0 -4 8 -5 18 -3 22 6 130
-52 136 -74 3 -9 10 -37 16 -62 7 -25 15 -54 18 -65 3 -11 6 -40 7 -65 3 -92
5 -101 17 -94 7 4 8 3 4 -5 -17 -27 113 -324 198 -454 53 -80 81 -114 56 -67
-6 11 -9 20 -7 20 8 0 86 -108 82 -112 -11 -11 68 -75 222 -180 63 -43 81 -65
43 -53 -11 3 -20 2 -20 -3 0 -6 5 -12 11 -14 15 -5 -14 -181 -35 -213 -9 -13
-36 -95 -61 -182 -25 -87 -52 -183 -61 -213 -42 -138 -45 -170 -39 -340 4 -91
13 -190 21 -221 8 -31 14 -94 14 -138 0 -53 7 -102 19 -139 10 -31 21 -92 23
-134 3 -49 11 -86 22 -103 12 -18 20 -62 26 -143 5 -64 18 -148 29 -187 10
-38 24 -110 30 -160 7 -49 18 -141 26 -203 7 -62 18 -119 24 -126 6 -7 16 -46
22 -87 6 -41 20 -100 30 -132 11 -31 19 -67 19 -79 0 -12 4 -35 10 -52 5 -17
18 -66 30 -108 47 -179 64 -234 76 -249 8 -8 14 -22 14 -30 0 -8 9 -32 20 -54
11 -21 25 -54 31 -74 7 -20 43 -97 80 -172 38 -74 69 -140 69 -145 0 -6 -36
-28 -81 -49 -44 -22 -85 -45 -90 -52 -12 -13 -42 -6 -33 8 3 5 1 9 -4 9 -5 0
-12 8 -16 17 -3 10 -10 25 -15 33 -27 43 -66 116 -66 125 -1 6 -7 21 -14 34
-14 25 -12 50 9 171 24 133 -15 286 -97 387 -51 62 -103 112 -118 113 -11 0
-34 34 -41 59 -2 9 -8 39 -14 66 -6 28 -15 59 -19 70 -5 11 -9 34 -10 50 -1
32 -18 120 -29 145 -3 8 -7 26 -8 40 -4 52 -28 195 -33 200 -3 3 -7 16 -8 30
-3 26 -18 131 -27 188 -7 39 -13 81 -22 150 -3 28 -11 52 -16 52 -6 0 -8 12
-5 29 4 17 0 36 -8 47 -10 14 -10 22 -2 32 6 8 7 16 1 20 -5 4 -10 18 -11 32
-1 14 -6 50 -12 80 -6 30 -13 71 -15 91 l-4 37 50 4 c121 12 173 163 87 254
-26 28 -91 48 -126 39 -46 -11 -49 4 -51 229 0 116 3 217 8 225 4 9 10 50 13
91 3 41 8 82 11 90 3 8 7 47 10 85 3 39 10 113 16 165 5 52 7 122 4 155 -9
101 -25 195 -35 201 -5 3 -7 10 -4 15 9 13 -26 149 -37 149 -5 0 -9 10 -8 23
3 37 1 49 -10 42 -9 -6 -11 -1 -14 38 -1 6 -7 16 -14 20 -7 5 -9 13 -6 19 4 6
1 14 -7 18 -10 7 -10 12 2 26 8 10 9 15 2 11 -8 -5 -18 4 -29 25 -9 18 -24 42
-34 53 -10 11 -20 31 -22 45 -1 14 -13 33 -25 43 -12 9 -23 26 -25 38 -2 11
-7 18 -11 17 -8 -3 -31 29 -32 44 0 3 -11 21 -25 40 -14 18 -25 38 -25 43 -1
6 -7 9 -14 7 -7 -1 -9 2 -6 8 4 6 -5 22 -19 35 -14 13 -26 29 -26 34 0 6 -13
26 -30 44 -16 19 -30 42 -30 50 0 9 -12 33 -26 54 -14 21 -30 47 -35 58 -5 11
-17 31 -26 45 -10 13 -12 21 -5 16 6 -4 3 9 -9 28 -12 20 -18 36 -14 36 4 0 2
7 -5 15 -6 8 -9 18 -6 24 3 5 1 11 -6 13 -6 2 -11 24 -11 51 0 26 -5 47 -10
47 -11 0 1 137 15 164 7 13 7 16 -1 11 -8 -5 -10 2 -6 22 4 15 9 39 11 53 3
14 12 32 21 42 8 9 16 23 17 32 1 8 9 23 17 33 9 10 29 39 45 65 16 27 32 48
35 48 3 0 31 25 62 55 31 30 60 55 66 55 5 0 22 11 38 23 15 13 51 37 78 52
28 16 53 34 57 40 5 6 8 6 8 0 0 -5 6 -3 13 6 10 13 37 29 57 33 29 7 223 115
228 128 2 4 8 8 14 8 6 0 21 10 33 23 13 12 51 49 84 82 33 33 61 63 61 67 0
4 16 24 35 45 19 21 35 45 35 53 0 9 7 26 16 38 8 12 12 22 9 22 -3 0 3 10 15
22 11 12 20 29 20 38 0 9 4 20 9 25 17 17 44 128 71 295 6 36 18 102 26 147 8
45 18 115 20 155 3 40 10 87 15 104 6 18 16 76 24 130 8 55 23 137 35 184 11
47 23 96 26 109 3 13 9 31 13 40 5 9 11 27 12 41 2 14 6 27 9 30 3 3 16 39 30
80 13 41 28 79 32 85 4 5 8 22 8 37 0 15 5 28 10 28 6 0 10 6 10 14 0 7 11 33
23 57 13 24 30 62 37 84 7 22 21 55 32 72 11 18 17 37 13 43 -3 5 -2 10 3 10
9 0 47 75 48 95 1 23 26 85 35 85 5 0 9 12 9 26 0 14 4 23 9 19 6 -3 14 9 19
27 9 31 54 140 89 217 14 32 21 53 22 77 1 6 10 21 21 34 11 13 25 42 32 64 6
23 22 57 35 76 13 19 23 40 23 46 0 6 6 17 14 23 8 7 18 26 21 42 4 16 22 51
40 78 19 27 37 61 41 75 3 15 12 30 19 34 13 7 87 112 80 112 -2 0 12 17 30
38 19 20 35 41 35 45 0 4 28 37 63 73 34 36 64 70 66 77 5 14 27 37 36 37 3 0
29 24 59 53 73 71 153 140 177 151 10 5 19 16 19 24 0 9 3 12 7 9 3 -4 12 2
20 13 8 11 22 20 31 20 10 0 26 11 36 25 10 14 25 25 33 25 7 0 16 7 19 15 4
8 9 13 13 10 4 -2 22 9 40 26 18 16 38 31 44 32 7 1 32 17 56 35 24 17 50 32
57 32 7 0 14 3 16 8 3 7 90 52 100 52 3 0 38 18 79 41 41 22 110 53 154 69 44
15 100 36 125 45 25 9 56 19 68 21 13 3 34 11 45 18 12 8 53 19 90 25 38 7 76
16 85 21 38 19 117 34 292 56 25 3 53 10 63 16 10 5 47 9 83 9 36 0 75 4 87 9
30 12 433 12 477 0z m-395 -1399 c61 -4 123 -13 140 -20 23 -9 34 -10 52 0 18
10 31 9 67 -5 42 -16 47 -16 77 0 27 13 61 16 183 16 83 0 187 -5 231 -11 88
-12 124 -17 142 -19 7 -1 27 -15 45 -31 18 -15 47 -31 63 -35 77 -18 84 -18
120 4 35 22 37 22 74 5 21 -9 49 -17 62 -16 13 1 42 2 64 4 26 1 40 -2 41 -10
1 -7 2 -20 3 -29 1 -14 10 -16 59 -12 46 5 62 2 80 -12 12 -10 30 -16 41 -13
12 3 24 -3 34 -17 20 -29 65 -52 97 -48 21 3 25 -1 25 -22 0 -23 5 -25 50 -28
27 -2 58 -10 67 -19 11 -10 26 -13 42 -9 13 3 32 3 40 0 19 -7 21 -30 4 -37
-10 -4 -10 -7 0 -18 10 -11 17 -10 43 5 29 17 31 17 43 0 16 -21 152 -40 172
-23 8 7 13 3 17 -11 3 -13 13 -20 29 -20 44 0 101 -37 118 -78 33 -81 50 -101
99 -122 40 -18 53 -30 75 -73 14 -29 26 -61 26 -71 0 -10 12 -30 26 -43 18
-16 24 -31 21 -45 -3 -11 5 -55 19 -96 13 -42 25 -98 26 -125 0 -41 4 -50 24
-59 17 -8 26 -24 33 -62 21 -110 26 -172 17 -199 -7 -20 -7 -34 2 -47 18 -29
15 -47 -9 -53 -17 -5 -21 -12 -17 -36 4 -30 -1 -35 -29 -32 -17 2 -16 -5 4
-36 10 -15 20 -57 24 -95 5 -52 13 -80 38 -120 38 -60 47 -98 32 -126 -12 -23
6 -79 33 -101 8 -7 13 -18 10 -25 -7 -19 43 -120 73 -148 16 -14 33 -34 39
-44 7 -10 15 -16 19 -12 9 9 -36 107 -72 156 -26 35 -27 32 25 48 6 2 12 -4
12 -13 0 -17 44 -63 61 -63 18 0 9 20 -21 47 -34 30 -38 43 -13 43 24 0 65
-50 60 -72 -3 -9 2 -23 10 -29 8 -7 19 -21 24 -32 10 -17 7 -16 -20 4 -25 18
-33 20 -46 9 -8 -7 -15 -18 -15 -25 0 -12 81 -75 97 -75 5 0 18 -14 28 -31 11
-17 28 -43 37 -58 10 -14 21 -33 25 -41 8 -18 51 -60 61 -60 4 0 15 -14 24
-31 11 -17 23 -27 29 -23 14 9 29 -14 29 -46 0 -26 35 -50 73 -50 14 0 17 4
12 18 -24 58 5 66 44 11 39 -53 39 -62 1 -54 -26 6 -30 4 -30 -15 0 -18 -4
-21 -21 -17 -13 3 -19 1 -16 -6 2 -7 16 -11 30 -9 27 3 37 -11 17 -23 -16 -10
-12 -47 8 -68 17 -19 16 -20 -20 -13 -31 6 -38 4 -38 -9 0 -8 7 -15 15 -15 20
0 40 -39 26 -53 -14 -14 18 -74 63 -115 20 -18 36 -37 36 -42 0 -13 -47 -3
-78 17 -12 7 -27 11 -32 8 -17 -11 -11 -35 8 -35 11 0 27 -9 37 -20 17 -19 17
-20 -5 -38 l-24 -19 22 -19 c12 -10 22 -22 22 -27 0 -5 14 -25 30 -44 32 -36
32 -53 -1 -53 -24 0 -24 -11 1 -43 11 -14 20 -29 20 -35 0 -5 9 -17 20 -27 11
-10 20 -26 20 -36 0 -30 11 -49 29 -49 26 0 33 -12 17 -29 -13 -14 -13 -20 1
-49 14 -30 14 -34 -1 -51 -15 -16 -15 -22 -5 -39 12 -18 10 -23 -14 -42 -18
-15 -27 -31 -27 -51 0 -22 -6 -30 -24 -35 -14 -3 -23 -12 -22 -22 1 -21 -57
-29 -90 -12 -12 7 -28 10 -36 7 -9 -3 -7 -7 7 -12 11 -4 51 -20 89 -36 38 -16
76 -29 85 -29 10 0 26 -7 37 -15 10 -8 27 -15 36 -15 9 0 29 -6 45 -14 74 -37
122 -56 140 -56 11 0 27 -8 34 -17 18 -21 62 -35 -411 126 -52 18 -115 39
-140 46 -165 51 -346 123 -475 190 -160 83 -325 159 -390 180 -22 7 -85 31
-140 53 -55 21 -113 42 -130 46 -16 4 -37 13 -45 20 -8 8 -28 16 -44 20 -16 4
-58 20 -92 37 -35 16 -69 29 -77 29 -22 0 -290 90 -314 106 -12 8 -28 14 -35
14 -27 0 -208 94 -204 106 6 15 -80 84 -104 84 -9 0 -21 5 -27 11 -12 12 -33
4 -33 -12 0 -5 7 -9 15 -9 8 0 19 -9 25 -20 6 -11 17 -20 25 -20 8 0 15 -4 15
-10 0 -5 -6 -10 -14 -10 -8 0 -18 5 -21 10 -3 6 -17 10 -30 10 -13 0 -40 14
-58 30 -34 30 -57 38 -57 21 0 -11 -92 13 -122 32 -19 12 -66 23 -120 26 -4 1
-5 8 -2 16 4 9 0 15 -9 15 -8 0 -17 -4 -19 -10 -2 -6 -34 -4 -88 6 -200 38
-510 34 -730 -10 -146 -30 -316 -80 -341 -102 -8 -8 -22 -14 -31 -14 -8 0 -30
-10 -49 -23 -19 -12 -45 -28 -59 -34 -14 -7 -36 -21 -50 -32 -49 -38 -152
-101 -163 -101 -7 0 -17 10 -22 23 -7 15 -18 21 -34 19 -13 -1 -30 3 -37 9
-20 17 -18 -4 6 -53 15 -32 17 -44 8 -50 -17 -11 -23 -10 -98 8 -52 12 -119
15 -335 13 -148 -1 -282 1 -297 5 -22 6 -26 5 -25 -11 2 -13 -6 -19 -27 -21
-23 -3 -36 5 -73 44 -40 43 -48 48 -90 49 -26 0 -48 5 -50 10 -11 33 -22 36
-121 36 -56 0 -104 4 -107 9 -3 6 -16 5 -31 0 -37 -14 -41 -13 -48 15 -4 14
-18 36 -32 48 -15 12 -30 32 -35 45 -5 13 -17 22 -29 22 -11 0 -20 4 -20 9 0
5 -18 5 -42 0 -23 -6 -48 -7 -56 -4 -8 3 -20 1 -27 -5 -17 -14 -71 36 -57 53
7 9 0 22 -24 47 -40 41 -43 56 -9 64 14 4 25 13 25 22 0 12 -7 14 -34 8 -30
-5 -35 -3 -38 16 -2 18 -11 23 -36 25 -18 2 -41 10 -51 19 -22 20 -35 20 -51
1 -17 -21 -25 -19 -40 10 -9 17 -10 28 -3 37 14 18 23 58 13 58 -4 0 -13 12
-19 28 -6 15 -19 41 -28 57 -9 17 -24 46 -34 65 -9 19 -26 39 -38 45 -15 7
-19 15 -14 35 8 35 13 41 26 34 9 -5 9 -4 1 5 -12 14 9 94 33 122 7 8 13 23
13 31 0 9 7 21 15 28 9 7 15 29 15 51 0 22 5 39 10 39 6 0 10 -4 10 -8 0 -9
11 -11 72 -12 21 -1 40 -6 44 -11 9 -16 34 39 34 76 0 26 5 34 24 39 13 3 38
19 55 35 17 16 38 31 46 35 8 3 15 11 15 17 0 11 -34 8 -72 -6 -24 -10 -56 60
-40 86 8 12 10 35 6 59 -5 30 -2 45 10 59 9 9 13 20 10 24 -10 9 -57 -16 -79
-43 -11 -13 -28 -31 -37 -39 -20 -17 -24 -41 -8 -41 6 0 10 -4 10 -10 0 -5 -7
-10 -16 -10 -8 0 -20 -13 -25 -30 -9 -25 -15 -29 -35 -24 -21 5 -24 3 -25 -22
-1 -16 -1 -37 0 -46 1 -10 -2 -26 -8 -35 -9 -16 -11 -15 -20 9 -5 14 -15 29
-20 33 -12 7 -5 45 15 84 8 14 14 35 14 46 0 11 23 76 51 145 49 122 62 153
120 275 15 33 31 72 34 88 4 15 11 30 16 33 5 2 16 22 25 42 8 20 21 46 26 57
12 21 16 31 42 85 39 82 142 235 226 337 64 77 157 155 215 181 16 7 32 16 35
21 7 10 42 25 54 22 11 -2 79 20 86 28 10 12 80 32 90 26 6 -4 31 3 55 14 25
12 48 21 51 21 3 0 20 10 37 22 24 17 46 23 97 24 38 0 91 10 128 23 43 15 74
20 98 15 20 -4 34 -2 34 3 0 6 15 14 32 19 19 6 38 20 45 34 15 30 55 49 106
50 27 0 37 4 37 16 0 12 6 15 24 10 15 -4 43 2 72 14 26 12 59 20 73 18 18 -2
25 2 23 11 -4 20 17 41 42 39 11 0 50 13 86 30 61 28 72 30 185 30 79 0 120 3
123 11 2 6 28 12 60 12 32 1 71 5 87 9 17 5 46 6 65 3 19 -2 85 -8 145 -12z
m-2758 -1955 c-7 -15 -14 -20 -18 -14 -10 15 0 38 16 38 10 0 11 -5 2 -24z
m6101 -429 c3 -16 1 -17 -17 -5 -25 16 -27 31 -4 26 10 -2 19 -11 21 -21z m72
-442 c7 -9 8 -15 2 -15 -5 0 -12 7 -16 15 -3 8 -4 15 -2 15 2 0 9 -7 16 -15z
m50 -45 c0 -5 -4 -10 -10 -10 -5 0 -10 5 -10 10 0 6 5 10 10 10 6 0 10 -4 10
-10z m1545 -10 c3 -5 -1 -10 -9 -10 -9 0 -16 5 -16 10 0 6 4 10 9 10 6 0 13
-4 16 -10z m-1617 -48 c6 -18 -15 -14 -22 4 -4 10 -1 14 6 12 6 -2 14 -10 16
-16z m122 -2 c0 -5 -4 -10 -10 -10 -5 0 -10 5 -10 10 0 6 5 10 10 10 6 0 10
-4 10 -10z m-5900 -14 c0 -3 -4 -8 -10 -11 -5 -3 -10 -1 -10 4 0 6 5 11 10 11
6 0 10 -2 10 -4z m-364 -26 c15 0 24 -6 24 -16 0 -12 -12 -15 -67 -14 -38 1
-102 -2 -143 -5 -72 -6 -74 -6 -52 10 16 12 48 18 99 20 41 2 78 6 81 10 3 3
12 3 20 0 7 -3 25 -5 38 -5z m7789 -29 c5 -10 -20 -41 -34 -41 -14 0 -29 23
-24 36 6 16 49 19 58 5z m-8072 -18 c-7 -2 -19 -2 -25 0 -7 3 -2 5 12 5 14 0
19 -2 13 -5z m3845 -33 c13 -9 4 -10 -36 -7 -29 2 -59 10 -65 17 -10 10 -3 11
36 6 27 -3 56 -11 65 -16z m187 -70 c10 -11 13 -20 7 -20 -7 0 -12 4 -12 9 0
5 -12 14 -27 19 -23 9 -25 11 -7 11 11 1 29 -8 39 -19z m2450 10 c3 -5 2 -10
-4 -10 -5 0 -13 5 -16 10 -3 6 -2 10 4 10 5 0 13 -4 16 -10z m-2765 -10 c0 -5
-4 -10 -10 -10 -5 0 -10 5 -10 10 0 6 5 10 10 10 6 0 10 -4 10 -10z m-3480
-65 c0 -11 -54 -25 -73 -19 -16 5 -17 8 -6 15 15 9 79 12 79 4z m-110 -14 c0
-5 -7 -14 -15 -21 -8 -7 -19 -29 -25 -50 -5 -20 -21 -54 -35 -74 -14 -20 -25
-41 -25 -47 0 -5 -12 -27 -26 -49 -14 -21 -23 -44 -19 -50 3 -6 -9 -32 -29
-58 -19 -27 -40 -62 -46 -78 -16 -41 -21 -198 -10 -344 11 -149 4 -196 -28
-193 -35 4 -168 98 -352 248 -41 34 -90 70 -107 80 -18 11 -33 24 -33 31 0 21
60 176 82 213 91 148 228 262 423 351 86 39 111 46 173 48 40 1 72 -2 72 -7z
m1530 -21 c0 -5 -4 -10 -10 -10 -5 0 -10 5 -10 10 0 6 5 10 10 10 6 0 10 -4
10 -10z m2487 -37 c37 -26 81 -61 97 -77 l29 -30 -6 33 c-6 30 -5 32 9 20 8
-7 13 -21 10 -32 -3 -13 0 -17 9 -13 15 6 40 -26 68 -86 14 -33 15 -38 2 -38
-17 0 -18 -2 -9 -25 4 -9 17 -20 29 -25 15 -6 24 -20 28 -42 3 -18 9 -41 13
-52 6 -15 4 -17 -14 -12 -26 9 -38 -10 -18 -29 19 -20 0 -75 -26 -75 -10 0
-23 -9 -30 -20 -16 -25 -44 -26 -60 0 -9 14 -19 18 -36 13 -15 -3 -27 0 -36
12 -11 15 -17 16 -55 4 -39 -12 -45 -11 -57 5 -13 18 -36 18 -90 1 -13 -4 -27
-1 -37 9 -28 29 -37 18 -22 -25 8 -23 15 -43 15 -44 0 -1 -33 -5 -72 -8 -58
-4 -80 -1 -108 13 -19 10 -47 24 -63 31 l-27 13 30 12 c23 10 44 11 82 4 42
-8 55 -7 67 5 13 13 12 15 -5 21 -42 16 -94 58 -94 75 0 20 -26 27 -32 8 -2
-7 -12 -7 -32 1 -16 6 -37 8 -47 5 -11 -4 -36 7 -68 29 -41 29 -55 34 -85 29
-20 -3 -36 -10 -36 -15 0 -5 -15 -8 -32 -6 -30 3 -33 6 -36 40 -3 34 0 40 32
59 21 12 36 29 36 40 0 23 63 38 85 19 11 -9 20 -7 45 10 17 12 48 24 68 27
44 6 96 -12 86 -29 -5 -8 -2 -9 11 -4 10 4 21 2 24 -3 11 -17 60 0 67 23 9 28
25 37 41 24 20 -16 16 -49 -7 -55 -30 -8 -13 -23 26 -23 19 0 34 -4 34 -9 0
-12 39 -21 46 -10 7 12 51 11 59 -1 9 -15 25 -12 25 5 0 8 -12 22 -27 32 -33
21 -53 45 -46 55 5 10 -7 51 -14 45 -5 -5 -43 29 -43 38 0 3 9 1 21 -6 23 -12
84 -4 95 12 3 6 -2 19 -11 29 -18 20 -13 40 10 40 8 0 45 -21 82 -47z m-3733
-7 c11 4 16 0 16 -13 0 -25 -19 -43 -44 -43 -11 0 -30 -12 -42 -27 -29 -37
-58 -27 -43 16 6 16 21 41 35 56 19 21 27 24 43 15 11 -5 27 -7 35 -4z m4511
-29 c0 -26 -20 -25 -23 2 -3 16 1 22 10 19 7 -3 13 -12 13 -21z m1615 2 c0 -5
-7 -9 -15 -9 -8 0 -15 7 -15 15 0 9 6 12 15 9 8 -4 15 -10 15 -15z m-6301 -53
c8 -10 9 -16 1 -21 -13 -8 -30 3 -30 21 0 18 14 18 29 0z m4583 -37 c36 -19 9
-89 -34 -89 -15 0 -19 6 -16 26 2 20 -3 29 -19 35 -18 7 -25 3 -35 -19 -10
-20 -22 -28 -46 -30 -27 -3 -32 0 -32 19 0 12 -7 27 -17 34 -31 23 -4 34 89
34 51 0 100 -5 110 -10z m-2045 -52 c-7 -21 -32 -13 -35 11 -3 21 -1 22 18 12
12 -6 19 -17 17 -23z m-47 -71 c24 -75 21 -106 -11 -106 -25 0 -59 56 -59 96
0 37 6 44 36 44 17 0 25 -9 34 -34z m2662 11 c13 -21 -2 -24 -51 -9 -27 9 -47
20 -44 25 7 11 86 -2 95 -16z m-5087 -96 c0 -23 -23 -24 -35 -1 -10 19 -9 21
12 18 13 -2 23 -9 23 -17z m-1247 -13 c17 -17 15 -58 -2 -58 -29 0 -46 13 -46
34 0 36 24 48 48 24z m1178 -71 c2 -21 0 -37 -5 -37 -13 0 -41 46 -41 68 0 52
39 25 46 -31z m3483 22 c-16 -30 -79 -28 -79 2 0 10 28 16 61 15 22 -1 25 -4
18 -17z m-1195 -25 c19 -7 22 -44 4 -44 -9 0 -9 -3 0 -12 7 -7 12 -19 12 -27
0 -21 40 -61 62 -61 21 0 22 -4 6 -30 -10 -15 -9 -22 5 -37 10 -12 14 -27 10
-42 -3 -13 -1 -26 6 -30 17 -11 2 -73 -21 -78 -11 -3 -18 -14 -18 -29 0 -24 8
-28 43 -25 9 1 17 -4 17 -13 0 -26 28 -18 44 13 15 28 40 42 63 34 6 -2 19
-29 29 -59 13 -41 22 -56 40 -60 16 -4 24 -13 24 -29 0 -18 4 -21 25 -17 26 5
55 -12 55 -32 0 -7 -9 -22 -20 -34 -25 -27 -25 -52 0 -102 25 -48 47 -63 130
-90 42 -13 73 -30 87 -48 12 -15 22 -21 23 -14 0 20 16 14 30 -13 13 -24 18
-25 96 -25 66 0 90 -4 116 -20 18 -11 47 -20 63 -20 17 0 38 -7 48 -14 12 -10
50 -14 118 -15 56 0 116 -3 135 -7 22 -4 34 -2 34 5 0 6 6 8 14 5 10 -4 13 0
9 14 -4 17 2 20 79 24 46 3 99 4 118 3 19 -1 53 -3 75 -4 78 -3 77 -13 -5 -96
-208 -211 -453 -314 -745 -314 -188 -1 -253 13 -450 96 -104 44 -150 76 -247
173 -104 104 -154 169 -194 250 -16 33 -32 60 -36 60 -14 0 -8 -20 23 -76 17
-30 29 -57 26 -60 -7 -7 -47 37 -47 52 0 6 -9 22 -19 36 -21 26 -71 150 -71
174 0 29 18 12 34 -31 10 -25 22 -45 27 -45 12 0 13 -6 -21 106 -18 56 -29
114 -28 134 l4 35 8 -30 c12 -45 47 -129 58 -140 7 -7 8 -2 4 15 -4 14 -11 46
-16 72 -11 62 -36 109 -54 102 -10 -4 -18 6 -25 33 -15 51 -14 63 4 63 18 0
17 -6 20 104 3 82 6 91 33 120 16 17 32 38 34 46 4 14 72 57 95 59 6 1 18 -2
27 -5z m-3384 -19 c13 -15 7 -45 -8 -45 -8 0 -32 42 -32 55 0 11 29 4 40 -10z
m5840 11 c0 -2 3 -11 6 -19 4 -12 -2 -13 -40 -4 -57 13 -60 27 -6 27 22 0 40
-2 40 -4z m-3585 -36 c17 -32 20 -60 6 -60 -11 0 -41 72 -34 83 7 12 12 8 28
-23z m3711 -5 c61 -16 93 -35 59 -35 -31 0 -89 18 -110 35 -25 18 -19 18 51 0z
m2924 -5 c0 -5 -2 -10 -4 -10 -3 0 -8 5 -11 10 -3 6 -1 10 4 10 6 0 11 -4 11
-10z m-9183 -112 c-2 -18 -4 -4 -4 32 0 36 2 50 4 33 2 -18 2 -48 0 -65z
m6464 56 c34 -5 47 -10 40 -17 -10 -10 -121 18 -121 30 0 3 7 3 15 -1 8 -3 38
-8 66 -12z m-1054 -19 c8 -9 14 -17 12 -18 -2 -2 -12 -8 -21 -16 -15 -11 -17
-9 -16 18 1 35 4 37 25 16z m-417 -81 c0 -8 -4 -14 -9 -14 -11 0 -22 26 -14
34 9 9 23 -3 23 -20z m546 -11 c-10 -10 -19 5 -10 18 6 11 8 11 12 0 2 -7 1
-15 -2 -18z m3636 -18 c-2 -14 -6 -25 -8 -25 -2 0 -4 11 -4 25 0 14 4 25 9 25
4 0 6 -11 3 -25z m-4243 -59 c10 -12 8 -17 -9 -26 -26 -14 -46 0 -37 24 8 20
31 21 46 2z m4245 -3 c3 -10 5 -62 4 -116 -2 -87 -4 -95 -15 -72 -13 24 -14
37 -14 153 0 50 14 70 25 35z m-7144 -138 c14 -17 5 -35 -19 -35 -22 0 -45 25
-36 40 9 15 41 12 55 -5z m-1472 -20 c26 -14 55 -25 64 -25 9 0 27 -4 40 -9
13 -5 68 -23 123 -41 67 -21 123 -47 170 -79 l70 -47 0 -109 c0 -163 -12 -375
-24 -414 -6 -19 -8 -38 -5 -43 3 -5 -1 -20 -10 -33 -9 -13 -16 -36 -16 -50 0
-34 -22 -33 -94 6 -88 48 -226 220 -295 370 -57 121 -101 315 -101 439 0 42 5
53 28 59 2 1 24 -10 50 -24z m3462 16 c0 -15 -19 -23 -38 -16 -14 5 -14 7 -2
15 19 12 40 13 40 1z m-3557 -244 c14 -45 28 -93 31 -107 2 -14 8 -36 12 -49
13 -42 -20 -19 -34 25 -17 49 -52 190 -52 210 0 35 20 -1 43 -79z m-183 38 c0
-5 -5 -3 -10 5 -5 8 -10 20 -10 25 0 6 5 3 10 -5 5 -8 10 -19 10 -25z m4720 3
c15 -9 24 -9 43 1 29 15 47 8 47 -18 0 -16 -7 -18 -51 -14 -58 4 -69 8 -69 29
0 17 5 18 30 2z m129 -72 c12 -15 11 -65 -1 -72 -5 -4 0 -11 12 -18 13 -6 22
-15 22 -21 -2 -12 -26 -16 -120 -18 -61 -2 -73 1 -78 15 -9 29 5 38 61 38 35
0 59 5 69 16 21 21 12 34 -25 34 -42 0 -77 19 -58 31 19 12 107 8 118 -5z
m251 -104 c0 -5 -7 -17 -15 -28 -14 -18 -14 -17 -4 9 12 27 19 34 19 19z
m2505 -242 c8 -26 -4 -48 -16 -29 -12 19 -11 49 0 49 5 0 12 -9 16 -20z m7
-112 c-16 -16 -35 3 -26 26 6 16 8 16 22 2 13 -12 14 -18 4 -28z m-7372 2 c0
-5 -2 -10 -4 -10 -3 0 -8 5 -11 10 -3 6 -1 10 4 10 6 0 11 -4 11 -10z m7440
-41 c0 -5 -4 -9 -10 -9 -5 0 -10 7 -10 16 0 8 5 12 10 9 6 -3 10 -10 10 -16z
m-5994 -34 c-27 -25 -58 -47 -68 -51 -10 -3 -18 -9 -18 -14 0 -9 -41 -35 -130
-83 -110 -59 -329 -102 -401 -79 -19 7 -52 14 -73 16 -48 6 -64 19 -47 40 17
20 76 49 131 65 25 7 59 17 76 22 17 5 40 9 52 9 11 0 28 10 36 21 12 18 20
20 48 14 18 -4 75 -9 127 -11 79 -2 97 0 113 16 18 16 45 26 106 37 13 2 37
13 55 23 49 30 47 24 -7 -25z m5951 8 c4 -10 14 -23 24 -30 9 -7 19 -27 23
-45 3 -18 19 -44 35 -58 l29 -25 -6 -93 c-7 -94 -19 -120 -33 -68 -9 33 -27
48 -50 41 -22 -7 -40 34 -25 57 8 13 8 23 -2 38 -6 11 -12 26 -12 34 0 9 -9
24 -20 34 -11 10 -27 41 -35 68 -18 61 -19 57 4 51 10 -2 25 -1 32 4 21 13 29
11 36 -8z m183 -89 c0 -8 -5 -12 -10 -9 -6 4 -8 11 -5 16 9 14 15 11 15 -7z
m-2860 -24 c-12 -23 -48 -36 -62 -22 -6 6 2 16 24 29 38 23 53 20 38 -7z
m2876 -27 c-11 -11 -19 6 -11 24 8 17 8 17 12 0 3 -10 2 -21 -1 -24z m-166
-205 c0 -4 -4 -8 -10 -8 -5 0 -10 7 -10 15 0 8 -5 15 -11 15 -5 0 -7 5 -3 12
5 7 11 5 21 -7 7 -11 13 -22 13 -27z m-6893 -12 c55 -18 128 -37 162 -41 72
-8 81 -25 14 -25 -35 -1 -62 -9 -98 -30 -27 -16 -61 -34 -75 -40 -14 -6 -35
-16 -47 -22 -13 -6 -25 -9 -28 -6 -3 3 -1 34 5 69 14 88 14 87 -22 109 -46 28
-27 25 89 -14z m7051 -24 c2 -15 -2 -22 -12 -22 -9 0 -16 4 -16 9 0 5 -3 17
-6 26 -5 13 -2 16 12 13 11 -2 20 -13 22 -26z m-4563 -802 c3 -5 -1 -10 -10
-10 -9 0 -13 5 -10 10 3 6 8 10 10 10 2 0 7 -4 10 -10z m229 -67 c-10 -7 -28
-13 -41 -13 -20 0 -22 3 -14 19 6 10 8 21 5 24 -3 3 -3 10 1 16 4 7 17 3 36
-11 28 -21 29 -24 13 -35z m200 27 c13 -27 13 -30 -2 -30 -17 0 -62 38 -62 52
0 4 11 8 24 8 17 0 29 -9 40 -30z m-104 -10 c8 -5 12 -12 9 -15 -8 -8 -39 5
-39 16 0 11 11 11 30 -1z m-36 -42 c9 -36 7 -48 -9 -48 -16 0 -17 1 -19 43 -2
33 19 36 28 5z m396 -139 c0 -19 -5 -29 -15 -29 -16 0 -18 12 -9 47 8 31 24
19 24 -18z m675 1 c3 -5 -1 -10 -9 -10 -9 0 -16 5 -16 10 0 6 4 10 9 10 6 0
13 -4 16 -10z m-55 -51 c0 -6 -4 -7 -10 -4 -5 3 -10 11 -10 16 0 6 5 7 10 4 6
-3 10 -11 10 -16z m-3713 -26 c6 -16 -35 -23 -41 -8 -3 8 0 16 7 19 16 6 30 2
34 -11z m3787 -74 c-9 -10 -23 -19 -31 -19 -23 0 -14 40 15 68 l27 27 3 -28
c2 -17 -4 -37 -14 -48z m76 -9 c0 -5 -2 -10 -4 -10 -3 0 -8 5 -11 10 -3 6 -1
10 4 10 6 0 11 -4 11 -10z m2983 -969 c7 -27 -21 -36 -44 -15 -27 24 -24 34
10 34 20 0 30 -6 34 -19z m509 -49 c4 -23 12 -51 18 -63 9 -16 9 -24 0 -33
-22 -21 -50 29 -50 91 0 66 21 69 32 5z m-460 13 c0 -5 -5 -11 -11 -13 -6 -2
-11 4 -11 13 0 9 5 15 11 13 6 -2 11 -8 11 -13z m574 -152 c-11 -11 -17 4 -9
23 7 18 8 18 11 1 2 -10 1 -21 -2 -24z m-406 -137 c0 -6 9 -18 20 -26 15 -11
19 -22 15 -40 -3 -14 -1 -54 5 -90 6 -36 12 -73 14 -84 1 -10 9 -24 17 -30 11
-8 14 -38 13 -126 0 -95 -4 -123 -21 -161 -25 -57 -39 -132 -47 -259 -2 -43
-12 -64 -43 -99 -22 -23 -24 -32 -18 -75 6 -49 4 -58 -61 -251 -25 -74 -28
-134 -10 -177 28 -67 46 -44 44 57 -1 46 5 73 25 117 15 31 27 63 27 72 0 8 5
18 10 21 10 6 93 -20 115 -36 6 -4 43 -13 83 -20 59 -11 71 -16 66 -29 -4 -8
-9 -69 -10 -135 -3 -99 1 -132 18 -190 11 -38 27 -75 35 -82 8 -6 14 -14 13
-17 -1 -12 29 -62 59 -96 16 -19 45 -53 63 -74 57 -68 126 -141 170 -183 10
-9 15 -19 13 -23 -3 -4 2 -13 10 -20 19 -16 19 -30 0 -30 -8 0 -15 5 -15 10 0
6 -5 10 -10 10 -6 0 -29 9 -53 19 -110 50 -187 65 -332 66 -77 0 -146 4 -153
9 -17 10 -68 -2 -84 -21 -7 -8 -13 -32 -14 -52 0 -20 -10 -84 -21 -142 -19
-103 -59 -197 -98 -229 -8 -7 -15 -19 -15 -27 0 -8 -16 -30 -35 -50 -19 -20
-35 -42 -35 -49 0 -36 -382 -344 -427 -344 -8 0 -27 -13 -41 -28 -35 -36 -112
-81 -222 -128 -24 -10 -91 -43 -149 -71 -57 -29 -109 -53 -116 -53 -7 0 -15
-8 -17 -18 -3 -10 -29 -30 -59 -44 -157 -75 -207 -97 -234 -104 -16 -4 -41
-15 -54 -26 -13 -10 -31 -18 -39 -18 -9 0 -34 -9 -56 -19 -89 -41 -204 -91
-266 -114 -36 -13 -89 -36 -118 -51 -28 -14 -60 -26 -70 -26 -10 0 -37 -9 -60
-20 -22 -11 -63 -25 -91 -31 -27 -6 -55 -17 -62 -25 -6 -8 -18 -14 -26 -14 -7
0 -24 -7 -37 -15 -22 -15 -198 -78 -262 -94 -18 -5 -37 -11 -43 -15 -6 -4 -32
-10 -58 -13 -26 -3 -53 -12 -61 -20 -10 -9 -24 -12 -43 -8 -18 4 -29 2 -29 -4
0 -6 -15 -11 -34 -11 -19 0 -38 -5 -42 -11 -3 -6 -14 -9 -25 -6 -10 3 -25 -3
-34 -14 -10 -10 -31 -21 -48 -25 -18 -4 -42 -13 -54 -22 -15 -9 -34 -12 -53
-8 -20 3 -41 -1 -62 -14 -18 -10 -54 -22 -80 -25 -43 -7 -47 -6 -50 16 -2 13
-11 25 -20 27 -12 2 -17 -5 -20 -30 -3 -31 -6 -34 -83 -60 -44 -15 -90 -28
-103 -28 -13 0 -60 -12 -105 -27 -45 -15 -102 -27 -127 -28 -25 -1 -54 -6 -64
-12 -14 -8 -27 -8 -42 -1 -18 8 -26 7 -39 -6 -19 -18 -35 -22 -122 -31 -95 -9
-158 3 -215 42 -28 18 -61 36 -73 39 -13 3 -31 14 -41 25 -9 10 -23 19 -29 19
-7 0 -18 7 -25 15 -11 13 -10 18 5 29 16 12 16 15 -10 56 -23 37 -25 46 -15
65 10 19 10 27 -4 46 -24 35 -20 48 29 91 48 43 53 55 30 72 -22 17 -8 55 24
62 64 14 120 54 75 54 -8 0 -12 5 -9 10 4 6 16 8 28 4 15 -5 26 0 41 19 17 20
31 26 69 28 27 2 50 6 53 11 3 4 12 8 20 8 8 0 12 -4 9 -10 -7 -11 15 -11 60
0 25 6 27 8 13 14 -10 5 -18 13 -18 19 0 6 3 7 7 4 3 -4 11 -3 17 2 6 4 32 14
58 21 26 7 53 19 59 26 6 8 15 12 19 9 10 -6 25 14 26 35 3 42 5 48 20 54 24
9 54 -12 70 -51 13 -31 18 -34 43 -28 22 5 36 0 60 -21 34 -28 49 -27 36 3
-17 38 -8 53 31 53 12 0 25 7 28 17 6 14 10 13 34 -11 16 -14 31 -24 34 -21 2
3 13 -4 23 -15 20 -22 50 -26 61 -9 9 15 -14 29 -48 29 -16 0 -28 5 -28 10 0
18 53 33 73 20 10 -6 21 -9 26 -6 4 3 24 -1 44 -8 39 -13 110 -10 101 6 -3 5
-16 13 -29 18 -17 7 -22 14 -18 30 5 17 11 19 37 15 26 -5 34 -2 51 24 16 24
25 29 43 24 20 -5 23 -3 18 13 -3 11 -2 24 2 30 17 27 213 41 212 15 0 -3 -15
-13 -32 -22 -17 -8 -34 -21 -36 -28 -7 -21 80 -3 101 21 11 13 24 18 37 15 11
-3 23 -1 26 4 3 5 -2 9 -10 9 -9 0 -16 7 -16 15 0 9 -9 15 -25 15 -16 0 -25 6
-25 15 0 8 3 15 8 16 4 0 16 2 27 4 11 2 40 -10 65 -26 43 -28 85 -35 85 -14
0 6 -10 11 -22 13 -41 6 -26 31 19 34 43 3 57 19 40 45 -9 14 -93 19 -134 8
-24 -6 -28 -4 -28 15 0 19 4 21 34 17 18 -2 48 2 67 11 19 8 39 14 44 13 6 -2
29 -3 53 -3 38 0 42 -2 37 -19 -4 -12 -2 -19 7 -19 23 0 58 30 58 51 0 11 7
19 18 19 9 0 26 3 37 6 13 3 35 -5 57 -20 33 -22 38 -23 50 -9 7 8 21 19 33
23 14 5 20 16 20 39 0 35 -6 37 -38 17 -28 -18 -191 -16 -209 2 -19 19 -7 21
45 10 55 -11 78 0 70 33 -6 20 -2 21 56 17 l61 -3 -6 33 c-6 30 -5 32 24 32
32 0 50 -14 32 -25 -12 -7 -4 -25 11 -25 5 0 17 16 26 35 9 20 24 35 34 35 18
0 33 26 23 41 -3 5 -11 9 -18 9 -7 0 -21 7 -32 15 -18 14 -17 15 11 9 17 -4
37 -13 46 -20 19 -17 51 -18 67 -2 9 9 12 9 12 0 0 -7 -4 -12 -10 -12 -5 0
-10 -4 -10 -10 0 -5 14 -10 30 -10 19 0 30 5 30 14 0 10 9 14 26 13 32 -2 39
11 20 36 -11 14 -32 19 -92 23 -43 3 -81 10 -85 16 -4 6 -15 8 -24 4 -24 -9
-55 2 -55 20 0 16 55 20 65 4 9 -14 51 5 88 40 53 50 131 35 80 -15 -14 -14
-14 -18 -2 -26 8 -5 17 -9 21 -9 4 0 14 -7 22 -16 15 -14 19 -13 46 6 16 12
30 26 30 31 0 5 11 14 25 19 25 9 25 11 10 39 -8 17 -15 39 -15 50 0 16 -44
55 -45 40 -2 -12 -85 71 -88 87 -4 30 -16 44 -38 44 -20 0 -26 15 -9 25 14 9
13 48 -2 63 -9 9 -9 12 -1 12 7 0 15 -4 18 -10 3 -5 15 -10 25 -10 24 0 33
-15 22 -37 -13 -25 -5 -41 29 -59 19 -10 32 -25 36 -45 6 -30 36 -55 53 -44
12 7 13 35 2 35 -4 0 -12 25 -18 56 -8 44 -7 57 3 61 17 7 17 22 -1 42 -14 17
-30 71 -21 71 3 0 23 -11 43 -25 20 -14 40 -25 44 -25 16 0 8 37 -11 54 -11
10 -23 31 -26 46 -8 35 -57 57 -76 34 -13 -16 -29 -10 -29 12 0 8 8 14 18 14
10 0 23 5 29 11 8 8 16 4 31 -11 13 -14 28 -21 40 -18 29 8 50 -8 34 -24 -19
-19 -14 -37 13 -44 17 -4 25 -13 25 -28 0 -21 32 -50 44 -39 3 3 -2 20 -11 37
-10 17 -17 53 -18 80 0 41 4 52 29 73 16 13 42 27 58 30 20 4 33 15 42 37 11
26 22 34 65 46 28 7 57 20 63 27 17 21 48 16 48 -7 0 -11 5 -20 10 -20 17 0
24 31 9 41 -11 6 -8 9 9 9 12 0 22 -6 22 -12 1 -20 38 -60 50 -53 10 6 15 -20
12 -57 -1 -10 4 -18 12 -18 15 0 16 46 2 69 -5 8 -11 25 -13 38 -1 12 -5 34
-7 48 -2 14 1 28 5 31 5 3 9 -8 9 -24 0 -17 9 -37 25 -52 l24 -23 36 22 c20
11 45 21 56 21 17 0 20 5 14 28 -6 31 15 59 35 47 6 -4 10 4 10 19 0 30 16 35
24 9 6 -18 121 -61 132 -50 3 3 -4 15 -15 26 -12 12 -21 29 -21 39 0 11 -7 33
-16 50 -8 18 -13 36 -9 42 10 16 110 41 164 42 40 0 51 4 56 19 4 10 15 19 26
19 17 0 24 16 20 43 -1 4 10 5 24 1 14 -3 26 -2 26 2 1 5 3 24 5 43 2 19 10
41 16 49 7 8 11 27 10 43 -4 36 10 42 74 31 42 -7 53 -5 76 12 26 18 29 18 46
3 21 -19 57 -23 67 -7 3 6 19 10 34 10 29 0 51 16 51 37 0 7 -8 13 -19 13 -47
0 -50 55 -6 84 27 18 32 7 13 -23 -17 -27 5 -51 46 -51 33 0 66 28 66 55 0 7
5 17 10 20 6 3 10 17 10 31 0 20 -4 25 -22 22 -12 -2 -25 -12 -28 -23 -3 -11
-13 -21 -22 -21 -14 -1 -16 2 -7 17 5 11 8 23 5 27 -3 5 5 8 17 8 16 -1 22 5
22 21 1 27 23 71 53 104 15 17 20 29 13 33 -6 4 -11 14 -11 23 0 13 3 13 16 2
13 -10 17 -10 25 2 5 8 9 22 9 32 0 9 4 17 10 17 5 0 9 5 7 12 -1 7 5 12 13
13 34 1 11 115 -24 115 -7 0 -18 11 -24 25 -16 35 -16 50 1 38 6 -6 27 -13 45
-16 27 -5 32 -3 32 12 0 10 -8 29 -19 42 -20 26 -22 99 -3 135 28 54 63 160
55 168 -3 3 2 12 11 21 9 9 16 26 16 38 0 22 8 51 46 160 13 38 24 87 24 111
0 23 3 46 7 49 8 9 33 -12 33 -27z m-260 -131 c0 -8 -5 -17 -11 -21 -16 -9
-30 18 -17 33 12 15 28 8 28 -12z m-310 -46 c0 -4 -4 -10 -9 -13 -4 -3 -11
-28 -15 -56 -7 -56 -21 -64 -37 -22 -6 15 -15 35 -21 45 -7 15 -5 20 11 24 11
3 23 13 26 23 4 12 12 16 25 13 11 -3 20 -9 20 -14z m260 -29 c0 -5 6 -7 14
-4 7 3 17 -3 20 -13 11 -28 -29 -55 -78 -51 -38 3 -41 5 -41 33 0 27 3 30 27
27 14 -2 29 2 33 7 8 14 25 14 25 1z m-357 -79 c-1 -30 -15 -50 -34 -51 -15 0
-19 35 -7 62 18 39 43 33 41 -11z m403 -42 c4 -7 -1 -16 -10 -21 -9 -5 -16
-18 -16 -28 0 -24 -9 -25 -36 -6 -18 14 -18 15 -1 21 9 4 17 16 17 26 0 21 34
27 46 8z m-196 -18 c-15 -29 -30 -35 -30 -13 0 22 8 32 27 32 10 0 11 -5 3
-19z m-4613 -16 c0 -8 -4 -15 -9 -15 -4 0 -8 7 -8 15 0 8 4 15 8 15 5 0 9 -7
9 -15z m4236 -50 c8 -19 -8 -28 -33 -20 -33 11 -24 26 21 34 4 0 9 -6 12 -14z
m107 -34 c0 -22 -15 -35 -30 -26 -6 4 -5 13 3 25 15 25 27 25 27 1z m150 -5
c0 -11 -19 -15 -25 -6 -3 5 1 10 9 10 9 0 16 -2 16 -4z m125 -16 c-3 -5 -11
-10 -16 -10 -6 0 -7 5 -4 10 3 6 11 10 16 10 6 0 7 -4 4 -10z m155 -15 c-14
-8 -32 -14 -40 -14 -9 0 -4 6 10 14 14 8 32 14 40 14 9 0 4 -6 -10 -14z m476
-1 c-3 -9 -6 -22 -6 -30 0 -8 -4 -14 -8 -14 -5 0 -7 14 -4 30 2 17 9 30 14 30
6 0 7 -7 4 -16z m-1292 -56 c22 -32 20 -39 -10 -32 -25 6 -26 5 -22 -20 3 -14
2 -26 -1 -26 -18 1 -27 19 -29 58 -1 38 1 42 23 42 13 0 31 -10 39 -22z m781
-38 c-3 -5 -10 -10 -16 -10 -5 0 -9 5 -9 10 0 6 7 10 16 10 8 0 12 -4 9 -10z
m488 -20 c-3 -11 -10 -23 -16 -27 -7 -4 -8 0 -4 11 4 10 7 24 7 32 0 9 4 13 9
10 5 -3 7 -15 4 -26z m-1513 -10 c27 -27 26 -44 -2 -29 -23 12 -38 28 -38 42
0 13 20 7 40 -13z m-521 -111 c37 -37 39 -56 7 -71 -14 -6 -27 -20 -29 -32 -3
-18 -5 -17 -12 8 -5 19 -4 36 5 50 11 17 10 22 -8 34 -11 7 -18 20 -15 28 8
21 18 17 52 -17z m-79 -119 c0 -5 -8 -10 -17 -10 -15 0 -16 2 -3 10 19 12 20
12 20 0z m170 -22 c0 -5 -11 -8 -24 -8 -14 0 -27 3 -29 8 -3 4 8 7 24 7 16 0
29 -3 29 -7z m1440 -28 c0 -5 -4 -10 -10 -10 -5 0 -10 5 -10 10 0 6 5 10 10
10 6 0 10 -4 10 -10z m-1520 -40 c0 -5 -2 -10 -4 -10 -3 0 -8 5 -11 10 -3 6
-1 10 4 10 6 0 11 -4 11 -10z m1524 -42 c9 -12 16 -31 16 -40 0 -15 -7 -18
-37 -16 -35 3 -38 6 -41 35 -3 30 2 36 40 42 4 0 14 -9 22 -21z m-1966 -26 c4
-35 13 -40 35 -17 13 12 15 11 19 -16 3 -16 -1 -38 -9 -48 -19 -28 5 -46 41
-30 14 7 26 16 26 21 0 4 5 8 10 8 6 0 10 -6 10 -13 0 -8 9 -22 20 -32 32 -29
26 -46 -15 -40 -20 2 -39 7 -44 9 -16 10 -33 -23 -27 -49 8 -32 -17 -45 -42
-22 -17 16 -21 63 -8 105 7 22 -14 35 -41 25 -16 -6 -16 -5 0 17 25 36 22 53
-8 46 -33 -8 -43 15 -20 50 22 34 49 28 53 -14z m86 29 c8 -12 -3 -41 -15 -41
-5 0 -9 11 -9 25 0 25 14 34 24 16z m121 -22 c6 0 22 3 38 7 21 5 27 3 27 -10
0 -12 -11 -16 -40 -18 -22 -1 -48 -2 -57 -2 -10 -1 -19 8 -21 18 -3 16 0 18
19 12 13 -4 29 -7 34 -7z m1707 -81 c-9 -9 -15 -9 -24 0 -10 10 -10 15 2 22
20 12 38 -6 22 -22z m-1687 12 c3 -5 1 -10 -4 -10 -6 0 -11 5 -11 10 0 6 2 10
4 10 3 0 8 -4 11 -10z m-293 -25 c9 -9 -16 -55 -29 -55 -19 0 -25 18 -13 40
10 19 30 26 42 15z m-3888 -116 c-6 -11 -24 -2 -24 11 0 5 7 7 15 4 8 -4 12
-10 9 -15z m3931 5 c17 -13 18 -16 5 -24 -20 -13 -26 -12 -40 5 -11 14 -6 35
8 35 4 0 16 -7 27 -16z m-3741 -9 c-4 -8 -10 -15 -15 -15 -5 0 -9 7 -9 15 0 8
7 15 15 15 9 0 12 -6 9 -15z m3914 -23 c2 -7 -3 -12 -12 -12 -9 0 -16 7 -16
16 0 17 22 14 28 -4z m-638 -10 c0 -13 -12 -22 -22 -16 -10 6 -1 24 13 24 5 0
9 -4 9 -8z m-70 -22 c0 -5 -2 -10 -4 -10 -3 0 -8 5 -11 10 -3 6 -1 10 4 10 6
0 11 -4 11 -10z m2358 -24 c3 -12 -1 -17 -10 -14 -7 3 -15 13 -16 22 -3 12 1
17 10 14 7 -3 15 -13 16 -22z m-1628 -46 c0 -20 9 -24 43 -21 21 3 23 -15 1
-23 -24 -9 -62 -7 -69 4 -7 11 -45 14 -45 4 0 -3 9 -17 20 -31 25 -33 25 -43
-1 -43 -18 0 -35 25 -30 45 1 3 -8 14 -19 23 -14 11 -19 23 -15 35 8 20 27 22
57 6 17 -9 23 -8 30 5 12 22 28 20 28 -4z m-455 -10 c0 -22 -29 -18 -33 3 -3
14 1 18 15 15 10 -2 18 -10 18 -18z m-3535 -101 c0 -5 -4 -9 -10 -9 -5 0 -10
7 -10 16 0 8 5 12 10 9 6 -3 10 -10 10 -16z m3035 -26 c8 -23 -10 -37 -39 -29
-30 7 -33 18 -11 40 18 17 41 12 50 -11z m91 6 c6 -11 -31 -48 -48 -49 -14 0
-20 43 -7 51 20 12 47 11 55 -2z m-2991 -68 c3 -5 1 -12 -5 -16 -5 -3 -10 1
-10 9 0 18 6 21 15 7z m2760 -11 c18 0 69 -90 58 -101 -5 -5 -25 -6 -45 -3
-27 5 -35 10 -31 23 2 10 -3 23 -11 30 -22 18 -22 65 0 57 9 -3 22 -6 29 -6z
m1995 -115 c0 -19 -27 -55 -42 -55 -25 0 -23 26 4 44 22 16 38 20 38 11z
m-2070 -95 c0 -5 -4 -10 -10 -10 -5 0 -10 5 -10 10 0 6 5 10 10 10 6 0 10 -4
10 -10z m50 0 c0 -5 -2 -10 -4 -10 -3 0 -8 5 -11 10 -3 6 -1 10 4 10 6 0 11
-4 11 -10z m1953 -54 c22 5 28 3 25 -7 -7 -21 -67 -23 -88 -4 -15 14 -17 21
-8 41 l11 24 15 -30 c13 -27 19 -30 45 -24z m-2105 32 c16 -16 15 -40 -2 -64
-18 -24 -22 -19 -31 34 -7 44 6 57 33 30z m1932 -8 c0 -5 -4 -10 -10 -10 -5 0
-10 5 -10 10 0 6 5 10 10 10 6 0 10 -4 10 -10z m-4935 -30 c3 -11 11 -20 16
-20 5 0 9 -6 9 -12 0 -7 -11 -1 -25 14 -27 29 -30 38 -16 38 5 0 13 -9 16 -20z
m2775 -29 c0 -13 -26 -32 -33 -24 -14 13 -6 33 13 33 11 0 20 -4 20 -9z m-480
-45 c0 -3 -4 -8 -10 -11 -5 -3 -10 -1 -10 4 0 6 5 11 10 11 6 0 10 -2 10 -4z
m-910 -26 c0 -5 -5 -10 -11 -10 -5 0 -7 5 -4 10 3 6 8 10 11 10 2 0 4 -4 4
-10z m535 -50 c-3 -5 -13 -10 -21 -10 -8 0 -12 5 -9 10 3 6 13 10 21 10 8 0
12 -4 9 -10z m-395 -16 c0 -8 -5 -12 -10 -9 -6 4 -8 11 -5 16 9 14 15 11 15
-7z m308 -23 c3 -8 -1 -12 -9 -9 -7 2 -15 10 -17 17 -3 8 1 12 9 9 7 -2 15
-10 17 -17z m2482 -11 c0 -5 -7 -10 -15 -10 -8 0 -15 5 -15 10 0 6 7 10 15 10
8 0 15 -4 15 -10z m-3070 -50 c0 -5 -2 -10 -4 -10 -3 0 -8 5 -11 10 -3 6 -1
10 4 10 6 0 11 -4 11 -10z m3180 -55 c10 -13 9 -15 -9 -15 -12 0 -21 6 -21 15
0 8 4 15 9 15 5 0 14 -7 21 -15z m-4170 -47 c0 -4 -6 -8 -13 -8 -16 0 -133
-126 -162 -174 -20 -32 -45 -38 -45 -10 0 8 -4 14 -10 14 -25 0 -7 42 28 64
20 13 66 54 101 90 61 62 66 65 83 49 10 -9 18 -20 18 -25z m4000 -14 c0 -22
-3 -24 -22 -18 -31 9 -33 11 -18 29 20 23 40 18 40 -11z m-20 -114 c0 -25 -12
-25 -35 0 -10 11 -14 20 -9 20 5 0 3 4 -5 9 -8 5 -11 16 -8 25 5 13 10 12 32
-10 14 -14 25 -34 25 -44z m177 14 c-3 -3 -12 -4 -19 -1 -8 3 -5 6 6 6 11 1
17 -2 13 -5z m-283 -123 c20 -14 39 -18 63 -14 30 5 38 2 57 -22 27 -33 46
-26 46 16 0 27 3 30 23 23 47 -14 49 -47 4 -69 -26 -12 -40 -13 -61 -5 -19 7
-32 6 -46 -2 -15 -10 -27 -8 -63 10 -25 12 -48 30 -51 40 -3 9 -9 23 -12 30
-8 17 6 15 40 -7z m3196 -1 c0 -5 -4 -10 -10 -10 -5 0 -10 5 -10 10 0 6 5 10
10 10 6 0 10 -4 10 -10z m-3373 -75 c28 -31 35 -35 53 -25 11 6 25 8 30 5 6
-3 10 -1 10 4 0 6 12 11 26 11 19 0 25 -4 22 -17 -2 -11 -11 -17 -22 -15 -9 2
-24 -2 -32 -9 -34 -28 -144 14 -159 61 -17 52 20 45 72 -15z m3030 -7 c-3 -8
-6 -5 -6 6 -1 11 2 17 5 13 3 -3 4 -12 1 -19z m-2553 -35 c9 -22 -7 -36 -31
-29 -14 4 -19 16 -20 41 -1 33 -1 34 22 19 13 -8 26 -22 29 -31z m-764 -38 c0
-8 -6 -15 -14 -15 -17 0 -28 14 -19 24 12 12 33 6 33 -9z m394 -101 c18 -7 12
-24 -10 -24 -8 0 -14 7 -14 15 0 17 2 18 24 9z m3366 -91 c0 -21 2 -26 31 -68
29 -42 29 -55 0 -55 -9 0 -21 -4 -26 -9 -6 -4 -23 -11 -39 -15 l-29 -7 7 43
c4 24 9 63 12 88 9 71 13 79 30 56 8 -11 14 -26 14 -33z m-3732 20 c2 -8 -5
-13 -17 -13 -21 0 -35 13 -24 24 10 10 36 3 41 -11z m96 -119 c13 -5 14 -9 5
-20 -10 -12 -15 -12 -36 2 -22 14 -27 14 -41 1 -10 -9 -34 -18 -54 -22 -21 -4
-35 -11 -32 -16 3 -5 -4 -9 -15 -9 -12 0 -21 3 -21 8 1 12 34 49 50 55 21 8
125 8 144 1z m83 0 c-3 -3 -12 -4 -19 -1 -8 3 -5 6 6 6 11 1 17 -2 13 -5z
m-379 -91 c2 -8 -6 -13 -22 -13 -17 0 -26 5 -26 16 0 19 41 16 48 -3z m-104
-86 c18 -22 18 -22 -15 -25 -19 -2 -40 -8 -47 -14 -9 -8 -16 -8 -25 2 -9 10
-9 13 1 17 6 3 12 13 12 22 0 10 3 21 7 24 11 11 46 -3 67 -26z m-137 -69 c-3
-8 -6 -5 -6 6 -1 11 2 17 5 13 3 -3 4 -12 1 -19z m-2720 -35 c-3 -10 -5 -2 -5
17 0 19 2 27 5 18 2 -10 2 -26 0 -35z m2896 30 c9 -9 -12 -33 -29 -33 -8 0
-14 9 -14 20 0 19 28 28 43 13z m-390 -59 l-27 -36 40 6 c30 5 44 3 53 -8 16
-19 -2 -30 -28 -16 -25 13 -31 13 -31 0 0 -5 9 -10 20 -10 13 0 18 -5 14 -15
-13 -34 -84 -3 -84 36 0 10 -10 21 -21 24 -19 6 -20 9 -6 22 9 9 33 19 54 23
21 4 39 8 41 9 2 0 -9 -15 -25 -35z m4288 -84 c5 -35 19 -76 30 -92 11 -15 18
-28 16 -28 -19 0 -77 34 -100 58 l-29 30 34 50 c18 28 34 49 36 48 1 -2 7 -32
13 -66z m86 -77 c-13 -12 -37 7 -37 30 0 37 12 40 28 7 8 -17 12 -33 9 -37z
m299 -318 c4 -8 14 -15 24 -15 11 0 22 -5 26 -11 4 -8 -4 -9 -27 -4 -32 7 -48
20 -49 38 0 13 21 7 26 -8z m794 -75 c0 -5 8 -10 18 -10 9 -1 28 -7 41 -14 23
-13 21 -13 -30 -18 -30 -3 -56 -4 -58 -2 -7 6 10 54 19 54 6 0 10 -4 10 -10z
m-8166 -365 c1 -39 1 -39 -44 -47 -25 -4 -57 -13 -72 -19 -23 -9 -33 -8 -63
11 l-36 22 36 43 c19 24 35 46 35 50 0 3 5 11 10 18 6 7 17 21 24 32 11 15 17
17 28 7 8 -6 18 -9 21 -5 4 3 7 1 7 -5 0 -7 5 -12 10 -12 6 0 10 19 11 43 1
39 2 37 16 -28 9 -38 16 -88 17 -110z m9576 -506 c30 -11 78 -29 107 -39 65
-23 95 -39 89 -48 -2 -4 11 -8 30 -9 19 -1 59 -13 88 -27 30 -14 62 -26 70
-26 8 0 18 -4 21 -10 3 -5 -3 -10 -14 -10 -11 0 -22 4 -26 10 -3 5 -12 7 -19
4 -17 -6 -79 24 -72 34 3 5 -11 9 -30 9 -20 1 -54 10 -77 21 -97 47 -155 72
-169 72 -9 0 -35 9 -59 20 -36 16 -40 20 -19 20 14 0 50 -9 80 -21z m844 -330
c5 -5 -8 -6 -30 -3 -54 8 -66 12 -60 23 7 10 75 -5 90 -20z"/>
<path d="M12500 13156 c0 -9 7 -16 16 -16 17 0 14 22 -4 28 -7 2 -12 -3 -12
-12z"/>
<path d="M14018 13106 c-84 -30 -162 -85 -273 -192 -38 -37 -85 -73 -103 -81
-18 -8 -38 -26 -44 -41 -7 -15 -26 -40 -43 -57 -33 -32 -50 -61 -46 -83 1 -8
-4 -23 -12 -35 -8 -12 -17 -34 -20 -48 -4 -14 -19 -39 -34 -55 -34 -36 -73
-92 -73 -105 0 -18 -39 15 -45 38 -3 13 -10 23 -16 23 -6 0 -8 4 -5 9 3 5 -2
15 -11 22 -14 12 -17 11 -27 -5 -6 -11 -22 -30 -35 -43 -23 -22 -24 -25 -10
-66 8 -23 13 -46 11 -51 -5 -15 7 -56 16 -56 9 0 32 59 32 83 0 18 29 37 55
37 12 0 15 -6 10 -19 -4 -13 1 -24 16 -35 l22 -15 -31 -30 c-18 -16 -32 -36
-32 -45 0 -9 -5 -16 -10 -16 -6 0 -8 -11 -4 -25 4 -15 2 -25 -5 -25 -6 0 -11
14 -11 32 0 17 -3 28 -7 25 -3 -4 -12 -2 -20 4 -10 9 -13 3 -13 -31 0 -45 53
-170 71 -170 6 0 15 14 20 30 9 24 17 30 40 30 22 0 31 -7 45 -36 10 -21 37
-48 66 -67 27 -18 60 -49 73 -69 14 -21 31 -38 38 -38 22 0 57 57 63 105 5 31
12 46 25 50 11 4 24 16 31 28 10 19 6 26 -34 62 -25 22 -53 54 -62 72 -9 18
-36 49 -60 69 -39 32 -64 72 -79 124 -5 18 19 68 42 90 9 9 43 33 76 55 57 38
64 40 132 39 70 -1 109 -16 97 -35 -3 -5 7 -9 21 -9 17 0 24 4 19 12 -5 8 -2
9 9 5 9 -3 19 -2 23 4 11 19 34 -13 34 -48 0 -35 13 -67 37 -91 7 -7 16 -31
19 -52 4 -21 17 -56 29 -77 23 -37 24 -37 29 -13 2 14 7 62 11 108 8 117 34
152 63 86 33 -74 51 -81 76 -30 15 31 15 40 1 107 -20 95 -7 167 20 107 14
-31 35 -35 35 -6 -1 29 -25 64 -35 49 -10 -18 -33 -13 -40 9 -7 23 10 60 29
60 27 0 3 236 -31 303 -12 23 -20 27 -57 27 -25 0 -50 2 -58 5 -7 2 -29 -2
-50 -9z"/>
<path d="M14270 12855 c-2 -5 -4 -26 -6 -45 -2 -27 0 -31 7 -17 6 10 8 30 6
45 -2 15 -5 23 -7 17z"/>
<path d="M14245 12621 c-6 -10 0 -97 10 -147 3 -12 12 -25 21 -28 14 -5 15 3
9 71 -8 77 -26 126 -40 104z"/>
<path d="M6770 12510 c0 -5 5 -10 10 -10 6 0 10 5 10 10 0 6 -4 10 -10 10 -5
0 -10 -4 -10 -10z"/>
<path d="M14311 12414 c0 -11 3 -14 6 -6 3 7 2 16 -1 19 -3 4 -6 -2 -5 -13z"/>
<path d="M12890 12385 c0 -9 5 -15 11 -13 6 2 11 8 11 13 0 5 -5 11 -11 13 -6
2 -11 -4 -11 -13z"/>
<path d="M14272 12323 c0 -43 -3 -102 -8 -132 -5 -36 -4 -52 3 -48 6 4 11 27
11 52 1 54 7 66 27 58 23 -8 62 22 68 53 3 19 -3 34 -23 57 -24 27 -30 29 -44
18 -14 -11 -16 -11 -16 3 0 9 -4 16 -9 16 -5 0 -9 -35 -9 -77z"/>
<path d="M12785 12320 c3 -5 8 -10 11 -10 2 0 4 5 4 10 0 6 -5 10 -11 10 -5 0
-7 -4 -4 -10z"/>
<path d="M12936 12315 c-4 -10 3 -20 19 -27 30 -13 49 -1 39 25 -8 21 -50 22
-58 2z"/>
<path d="M12510 12219 c0 -24 23 -21 28 4 2 10 -3 17 -12 17 -10 0 -16 -9 -16
-21z"/>
<path d="M13044 12155 c-8 -31 10 -55 27 -38 14 14 8 55 -8 60 -7 3 -15 -7
-19 -22z"/>
<path d="M5744 12087 c-7 -20 3 -37 22 -37 18 0 18 24 -1 40 -12 10 -16 9 -21
-3z"/>
<path d="M13040 12080 c0 -5 5 -10 11 -10 5 0 7 5 4 10 -3 6 -8 10 -11 10 -2
0 -4 -4 -4 -10z"/>
<path d="M6360 11974 c0 -8 9 -14 20 -14 11 0 20 6 20 13 0 7 -9 13 -20 14
-11 1 -20 -4 -20 -13z"/>
<path d="M14220 11914 c0 -8 5 -12 10 -9 6 3 10 10 10 16 0 5 -4 9 -10 9 -5 0
-10 -7 -10 -16z"/>
<path d="M12582 11909 c2 -7 10 -15 17 -17 8 -3 12 1 9 9 -2 7 -10 15 -17 17
-8 3 -12 -1 -9 -9z"/>
<path d="M13710 11905 c0 -8 -6 -24 -12 -35 -11 -17 -8 -24 24 -56 20 -20 40
-34 46 -30 5 3 12 22 15 43 6 32 2 42 -20 65 -29 31 -53 36 -53 13z"/>
<path d="M8671 11831 c-10 -6 -10 -10 -1 -16 13 -8 24 -1 19 14 -3 6 -10 7
-18 2z"/>
<path d="M13021 11801 c-19 -12 -4 -31 25 -31 26 0 31 9 12 28 -14 14 -19 15
-37 3z"/>
<path d="M12960 11744 c0 -33 2 -36 24 -32 18 4 31 -2 45 -18 19 -22 19 -24 3
-26 -9 0 -25 -1 -34 0 -29 3 -20 -25 12 -38 18 -7 27 -17 23 -24 -4 -6 1 -5
10 3 9 7 17 24 17 36 0 13 6 25 12 27 21 7 -7 56 -39 70 -16 7 -32 18 -36 25
-17 27 -37 14 -37 -23z"/>
<path d="M13745 11759 c-11 -17 3 -23 21 -9 12 11 20 11 35 2 16 -10 19 -9 19
3 0 18 -65 22 -75 4z"/>
<path d="M5860 11665 c0 -8 9 -15 20 -15 11 0 20 7 20 15 0 8 -9 15 -20 15
-11 0 -20 -7 -20 -15z"/>
<path d="M12664 11669 c-3 -6 -2 -15 4 -21 13 -13 32 -2 32 18 0 16 -26 19
-36 3z"/>
<path d="M13705 11660 c-5 -11 -18 -65 -17 -72 1 -5 -3 -8 -9 -8 -5 0 -7 -5
-3 -11 10 -16 55 -1 79 27 31 36 23 69 -17 69 -16 0 -31 -2 -33 -5z"/>
<path d="M14030 11649 c-1 -16 -53 -101 -91 -146 -14 -16 -39 -36 -55 -44 -22
-11 -30 -22 -32 -47 -2 -17 1 -32 7 -32 5 0 16 -3 24 -6 16 -6 107 84 120 119
14 37 38 160 32 165 -3 3 -5 -1 -5 -9z"/>
<path d="M12616 11592 c-3 -6 -1 -14 5 -17 15 -10 25 3 12 16 -7 7 -13 7 -17
1z"/>
<path d="M12880 11581 c0 -5 -9 -7 -20 -4 -20 5 -27 -7 -13 -21 4 -4 8 -17 8
-28 0 -12 6 -23 13 -25 8 -3 12 6 12 25 0 18 6 32 16 36 8 3 12 10 9 16 -8 12
-25 13 -25 1z"/>
<path d="M12830 11455 c0 -10 7 -15 18 -13 21 4 19 22 -2 26 -10 2 -16 -3 -16
-13z"/>
<path d="M12904 11445 c-3 -8 -3 -19 1 -25 11 -18 25 -11 25 15 0 27 -17 34
-26 10z"/>
<path d="M13396 11415 c-30 -28 -34 -45 -8 -45 24 1 48 21 56 48 10 30 -13 29
-48 -3z"/>
<path d="M14097 11393 c-4 -3 -7 -15 -7 -25 0 -10 -4 -26 -9 -36 -14 -29 -42
-115 -51 -157 -7 -34 -6 -37 5 -22 7 10 15 35 19 57 3 22 10 40 15 40 4 0 16
32 26 71 16 67 16 87 2 72z"/>
<path d="M12604 11366 c-8 -22 3 -49 19 -43 6 2 12 14 12 27 0 27 -22 39 -31
16z"/>
<path d="M12836 11372 c-2 -4 -1 -14 4 -21 10 -17 31 -5 23 14 -6 16 -19 20
-27 7z"/>
<path d="M12912 11318 c-19 -19 -14 -30 11 -26 12 2 22 9 22 17 0 19 -18 24
-33 9z"/>
<path d="M12727 11273 c-14 -14 -7 -43 11 -43 10 0 22 -3 25 -7 10 -10 -13
-32 -28 -27 -7 3 -16 1 -20 -5 -3 -6 2 -11 12 -11 11 0 24 -5 30 -11 26 -26
34 6 24 99 -1 13 -43 17 -54 5z"/>
<path d="M13026 11138 c-4 -24 -5 -52 -4 -63 2 -14 -4 -21 -19 -23 -17 -3 -23
-10 -23 -28 0 -13 -6 -24 -13 -24 -8 0 -22 -9 -32 -20 -10 -11 -14 -20 -9 -20
5 0 24 -9 42 -20 30 -18 32 -22 18 -36 -9 -8 -16 -21 -16 -29 0 -7 -9 -15 -20
-18 -32 -8 -37 -37 -9 -58 l24 -19 -22 0 c-18 0 -23 -6 -23 -24 0 -19 -16 -36
-34 -36 -9 0 -46 39 -46 49 0 6 -6 11 -13 11 -14 0 -37 -19 -37 -32 0 -15 44
-48 64 -48 15 0 27 -14 44 -50 16 -36 28 -50 42 -50 12 0 20 -7 20 -16 0 -10
6 -14 15 -10 10 4 15 -1 15 -16 0 -17 3 -18 15 -8 8 7 12 17 8 24 -4 6 -6 21
-4 33 2 17 -5 26 -23 33 -31 12 -33 26 -5 41 16 8 20 17 15 39 -3 19 0 33 10
41 9 7 14 25 12 45 -1 17 4 39 11 48 12 14 11 19 -1 34 -9 9 -18 34 -21 55 -5
34 -4 36 13 27 26 -14 43 18 35 64 -4 20 -2 36 4 40 17 11 13 72 -5 90 -21 22
-22 21 -28 -26z"/>
<path d="M12735 11110 c-8 -13 4 -32 16 -25 12 8 12 35 0 35 -6 0 -13 -4 -16
-10z"/>
<path d="M13977 11051 c-15 -32 -27 -67 -27 -76 0 -9 -9 -30 -21 -46 -11 -16
-19 -35 -16 -42 3 -7 9 -2 16 13 6 14 15 32 20 40 24 43 39 78 46 107 3 18 11
35 16 38 11 7 12 25 1 25 -4 0 -20 -27 -35 -59z"/>
<path d="M12640 11030 c6 -11 20 -20 32 -20 l22 0 -22 20 c-12 11 -26 20 -32
20 -8 0 -8 -6 0 -20z"/>
<path d="M12570 11016 c0 -9 7 -16 16 -16 17 0 14 22 -4 28 -7 2 -12 -3 -12
-12z"/>
<path d="M12711 11004 c0 -11 3 -14 6 -6 3 7 2 16 -1 19 -3 4 -6 -2 -5 -13z"/>
<path d="M12732 10897 c-8 -10 -6 -16 9 -25 26 -17 42 -6 29 19 -12 22 -23 24
-38 6z"/>
<path d="M12639 10784 c-11 -13 -10 -17 4 -25 21 -12 22 -28 1 -43 -9 -7 -12
-18 -8 -29 10 -27 18 -20 34 26 12 34 20 42 40 42 15 0 25 6 25 15 0 10 -9 14
-27 12 -14 -1 -29 2 -33 8 -9 14 -21 12 -36 -6z"/>
<path d="M13849 10779 c-8 -15 -8 -24 0 -32 6 -6 12 -7 12 -1 8 59 6 66 -12
33z"/>
<path d="M13946 10771 c-4 -7 -5 -15 -2 -18 9 -9 19 4 14 18 -4 11 -6 11 -12
0z"/>
<path d="M12577 10738 c-5 -16 3 -48 12 -48 3 0 12 4 20 9 10 7 11 13 2 30
-13 24 -27 27 -34 9z"/>
<path d="M13881 10689 c-19 -27 -42 -54 -51 -59 -10 -5 -21 -21 -24 -35 -4
-14 -11 -25 -16 -25 -6 0 -10 -4 -10 -10 0 -19 27 -10 53 18 15 15 38 38 53
52 25 24 33 40 48 88 13 40 -17 24 -53 -29z"/>
<path d="M12500 10654 c0 -31 26 -30 48 4 14 21 13 22 -17 22 -27 0 -31 -4
-31 -26z"/>
<path d="M12774 10618 c-9 -15 27 -41 39 -29 13 13 1 41 -17 41 -8 0 -18 -5
-22 -12z"/>
<path d="M12456 10415 c-31 -32 -10 -48 27 -21 15 11 15 15 3 25 -11 9 -17 8
-30 -4z"/>
<path d="M12276 10144 c-7 -19 2 -37 15 -29 12 8 12 45 0 45 -5 0 -12 -7 -15
-16z"/>
<path d="M12480 10080 c0 -5 7 -10 15 -10 8 0 15 5 15 10 0 6 -7 10 -15 10 -8
0 -15 -4 -15 -10z"/>
<path d="M12260 10025 c0 -14 29 -35 50 -35 7 0 5 7 -4 16 -9 8 -16 20 -16 25
0 5 -7 9 -15 9 -8 0 -15 -7 -15 -15z"/>
<path d="M12090 9955 c0 -18 5 -25 20 -25 11 0 20 6 20 13 0 7 -9 18 -20 25
-18 11 -20 10 -20 -13z"/>
<path d="M10311 9954 c0 -11 3 -14 6 -6 3 7 2 16 -1 19 -3 4 -6 -2 -5 -13z"/>
<path d="M10270 9901 c0 -5 5 -13 10 -16 6 -3 10 -2 10 4 0 5 -4 13 -10 16 -5
3 -10 2 -10 -4z"/>
<path d="M11822 9888 c-25 -25 -6 -68 30 -68 23 0 24 42 2 64 -19 19 -17 19
-32 4z"/>
<path d="M11981 9863 c-22 -41 -8 -71 18 -39 7 9 8 22 3 37 l-9 23 -12 -21z"/>
<path d="M10807 9794 c-8 -8 3 -34 14 -34 5 0 9 9 9 20 0 19 -11 26 -23 14z"/>
<path d="M11877 9793 c-15 -15 -5 -23 28 -23 24 0 35 5 35 15 0 15 -50 22 -63
8z"/>
<path d="M12072 9778 c1 -7 -1 -25 -5 -41 -6 -21 -2 -33 15 -51 31 -33 62 -37
66 -10 2 14 -6 27 -22 38 -18 11 -26 25 -26 46 0 20 -5 30 -15 30 -9 0 -15 -6
-13 -12z"/>
<path d="M11809 9733 c-7 -16 -15 -32 -17 -36 -2 -5 9 -7 24 -5 25 2 29 8 32
36 4 41 -19 44 -39 5z"/>
<path d="M11900 9723 c0 -27 6 -42 20 -51 23 -14 24 -11 10 40 -15 52 -30 57
-30 11z"/>
<path d="M11106 9743 c-11 -11 -6 -23 9 -23 8 0 15 4 15 9 0 13 -16 22 -24 14z"/>
<path d="M11974 9735 c-4 -9 -2 -21 3 -26 7 -7 12 -3 16 10 6 25 -11 39 -19
16z"/>
<path d="M10427 9734 c-9 -9 15 -54 29 -54 17 0 23 21 12 43 -9 17 -29 23 -41
11z"/>
<path d="M8632 9714 c4 -21 22 -23 26 -1 2 10 -3 17 -13 17 -10 0 -15 -6 -13
-16z"/>
<path d="M10522 9701 c4 -13 18 -16 19 -4 0 4 -5 9 -11 12 -7 2 -11 -2 -8 -8z"/>
<path d="M11620 9700 c0 -5 5 -10 10 -10 6 0 10 5 10 10 0 6 -4 10 -10 10 -5
0 -10 -4 -10 -10z"/>
<path d="M10065 9660 c3 -5 8 -10 11 -10 2 0 4 5 4 10 0 6 -5 10 -11 10 -5 0
-7 -4 -4 -10z"/>
<path d="M11700 9660 c-8 -5 -23 -11 -33 -14 -10 -3 -15 -10 -12 -16 9 -15 42
-12 49 5 3 8 11 14 17 13 6 -2 14 3 16 10 5 14 -15 15 -37 2z"/>
<path d="M10643 9614 c-7 -3 -10 -11 -7 -18 6 -16 56 -8 51 8 -4 12 -26 17
-44 10z"/>
<path d="M10953 9606 c-4 -8 -24 -16 -43 -18 -32 -3 -46 -21 -17 -24 6 0 18
-2 25 -2 6 -1 12 -15 12 -32 0 -22 5 -30 18 -30 9 0 27 -3 40 -6 22 -6 23 -5
18 57 -2 35 -5 65 -5 67 -3 9 -41 -1 -48 -12z"/>
<path d="M11043 9585 c-3 -9 -3 -18 0 -22 10 -10 37 6 37 22 0 20 -29 20 -37
0z"/>
<path d="M8540 9580 c0 -5 5 -10 11 -10 5 0 7 5 4 10 -3 6 -8 10 -11 10 -2 0
-4 -4 -4 -10z"/>
<path d="M9906 9574 c-4 -9 -4 -19 -2 -21 8 -8 26 8 26 23 0 19 -16 18 -24 -2z"/>
<path d="M8596 9565 c-3 -9 0 -15 9 -15 8 0 15 7 15 15 0 8 -4 15 -9 15 -5 0
-11 -7 -15 -15z"/>
<path d="M11472 9538 c6 -18 28 -21 28 -4 0 9 -7 16 -16 16 -9 0 -14 -5 -12
-12z"/>
<path d="M8755 9520 c-4 -7 -3 -16 2 -21 12 -12 45 0 40 15 -5 15 -34 19 -42
6z"/>
<path d="M10515 9521 c-3 -5 -1 -12 5 -16 5 -3 10 1 10 9 0 18 -6 21 -15 7z"/>
<path d="M8870 9510 c-39 -8 -39 -10 8 -16 24 -3 32 0 32 11 0 8 -1 14 -2 14
-2 -1 -19 -5 -38 -9z"/>
<path d="M10190 9516 c0 -2 7 -9 15 -16 13 -11 14 -10 9 4 -5 14 -24 23 -24
12z"/>
<path d="M10725 9511 c-8 -15 3 -31 21 -31 9 0 14 7 12 17 -4 20 -24 28 -33
14z"/>
<path d="M8563 9485 c13 -26 37 -34 37 -12 0 16 -20 37 -36 37 -9 0 -9 -6 -1
-25z"/>
<path d="M10285 9490 c-24 -4 -30 -10 -30 -30 0 -20 4 -24 23 -22 12 2 22 -2
22 -7 0 -12 27 -15 33 -3 2 4 -1 21 -7 37 -10 27 -15 30 -41 25z"/>
<path d="M11387 9493 c-4 -3 -7 -23 -7 -44 0 -32 -4 -40 -23 -45 -19 -4 -23
-11 -19 -29 5 -29 20 -36 67 -28 44 7 54 26 31 63 -9 16 -16 37 -16 48 0 21
-23 46 -33 35z"/>
<path d="M10135 9450 c-8 -12 20 -24 35 -15 6 3 8 11 5 16 -8 12 -32 12 -40
-1z"/>
<path d="M10096 9385 c4 -8 10 -15 15 -15 5 0 9 7 9 15 0 8 -7 15 -15 15 -9 0
-12 -6 -9 -15z"/>
<path d="M10250 9352 c-29 -9 -40 -32 -27 -60 6 -15 12 -29 14 -31 6 -10 34
31 29 44 -3 8 1 21 9 29 16 16 2 27 -25 18z"/>
<path d="M10312 9333 c2 -9 9 -18 16 -21 18 -6 15 25 -4 32 -11 4 -14 1 -12
-11z"/>
<path d="M10416 9341 c-4 -7 -5 -15 -2 -18 9 -9 19 4 14 18 -4 11 -6 11 -12 0z"/>
<path d="M10026 9321 c-12 -13 -14 -21 -6 -26 16 -10 40 2 40 19 0 24 -16 27
-34 7z"/>
<path d="M10086 9323 c-5 -11 1 -23 16 -35 28 -22 48 -23 48 -3 0 8 -9 15 -20
15 -13 0 -20 7 -20 20 0 24 -15 26 -24 3z"/>
<path d="M10343 9298 c-34 -54 -41 -86 -22 -105 20 -20 49 6 38 34 -6 16 -4
25 7 31 18 10 16 43 -3 49 -6 2 -15 -2 -20 -9z"/>
<path d="M10182 9214 c1 -9 9 -19 16 -22 9 -3 13 2 10 14 -1 9 -9 19 -16 22
-9 3 -13 -2 -10 -14z"/>
<path d="M10247 9213 c-13 -12 -7 -23 13 -23 11 0 20 7 20 15 0 15 -21 21 -33
8z"/>
<path d="M10113 9125 c-3 -9 -3 -18 -1 -21 8 -8 58 15 58 26 0 16 -50 12 -57
-5z"/>
<path d="M9891 9110 c-30 -17 -32 -20 -15 -26 10 -4 30 -15 44 -25 34 -23 97
-32 104 -14 3 8 0 18 -7 22 -8 5 -3 9 13 13 33 8 42 50 11 50 -12 0 -21 -4
-21 -10 0 -5 -11 -10 -24 -10 -14 0 -28 5 -31 10 -9 15 -36 11 -74 -10z"/>
<path d="M10110 9065 c-7 -8 -9 -22 -6 -31 5 -13 9 -14 21 -4 17 14 20 36 6
44 -5 3 -14 -1 -21 -9z"/>
<path d="M7111 9012 c-7 -13 -11 -26 -8 -28 8 -8 29 25 25 38 -3 8 -9 4 -17
-10z"/>
<path d="M9856 9011 c-4 -5 -2 -12 3 -15 5 -4 12 -2 15 3 4 5 2 12 -3 15 -5 4
-12 2 -15 -3z"/>
<path d="M10157 9013 c-4 -3 -7 -14 -7 -24 0 -25 -37 -44 -56 -29 -7 7 -20 10
-28 7 -10 -4 -12 0 -9 14 4 14 0 19 -16 19 -20 0 -21 -1 -7 -29 9 -16 22 -31
31 -34 9 -4 15 -19 15 -42 0 -31 3 -35 25 -35 21 0 25 5 25 28 0 32 16 52 42
52 25 0 33 25 20 56 -12 24 -23 30 -35 17z"/>
<path d="M9923 8978 c-28 -14 -30 -28 -3 -28 11 0 20 -3 20 -7 1 -5 12 -21 25
-38 21 -25 27 -27 35 -15 6 10 3 21 -12 37 -21 22 -21 23 -3 43 18 20 18 20
-11 19 -16 0 -39 -5 -51 -11z"/>
<path d="M9744 8969 c-3 -6 -2 -15 4 -21 13 -13 32 -2 32 18 0 16 -26 19 -36
3z"/>
<path d="M7530 8940 c0 -5 11 -10 24 -10 14 0 28 5 31 10 4 6 -7 10 -24 10
-17 0 -31 -4 -31 -10z"/>
<path d="M7387 8913 c-4 -3 -7 -15 -7 -25 0 -22 26 -24 34 -2 10 25 -10 45
-27 27z"/>
<path d="M9880 8880 c0 -5 5 -10 10 -10 6 0 10 5 10 10 0 6 -4 10 -10 10 -5 0
-10 -4 -10 -10z"/>
<path d="M10010 8855 c0 -10 10 -15 33 -15 30 1 31 1 13 15 -25 19 -46 19 -46
0z"/>
<path d="M7393 8802 c-25 -4 -32 -32 -9 -32 13 0 43 28 35 33 -2 2 -14 1 -26
-1z"/>
<path d="M9787 8793 c10 -29 14 -34 24 -28 5 4 5 14 -1 26 -13 24 -32 25 -23
2z"/>
<path d="M9867 8804 c-11 -11 -8 -44 3 -44 15 0 24 30 13 41 -5 5 -12 6 -16 3z"/>
<path d="M9988 8803 c6 -2 9 -10 6 -15 -4 -7 -2 -8 4 -4 18 11 14 26 -5 25
-11 0 -13 -3 -5 -6z"/>
<path d="M10050 8790 c-12 -23 -7 -25 21 -9 11 5 17 14 14 20 -10 15 -23 11
-35 -11z"/>
<path d="M9503 8757 c5 -15 65 -28 73 -15 8 13 5 14 -39 21 -27 4 -37 2 -34
-6z"/>
<path d="M7378 8745 c-8 -13 9 -55 22 -55 5 0 10 7 10 15 0 8 -4 15 -9 15 -5
0 -11 8 -13 18 -2 9 -6 13 -10 7z"/>
<path d="M9465 8740 c3 -5 8 -10 11 -10 2 0 4 5 4 10 0 6 -5 10 -11 10 -5 0
-7 -4 -4 -10z"/>
<path d="M9665 8740 c3 -5 8 -10 11 -10 2 0 4 5 4 10 0 6 -5 10 -11 10 -5 0
-7 -4 -4 -10z"/>
<path d="M9845 8730 c4 -6 11 -8 16 -5 14 9 11 15 -7 15 -8 0 -12 -5 -9 -10z"/>
<path d="M9656 8625 c-3 -8 -17 -15 -31 -15 -14 0 -25 -4 -25 -9 0 -15 18 -23
25 -11 4 6 19 9 33 8 21 -2 28 2 30 20 4 25 -22 31 -32 7z"/>
<path d="M9396 8621 c-14 -5 -16 -10 -8 -15 16 -9 72 2 72 15 0 11 -37 11 -64
0z"/>
<path d="M8210 8594 c0 -9 7 -14 17 -12 25 5 28 28 4 28 -12 0 -21 -6 -21 -16z"/>
<path d="M7950 8574 c0 -9 7 -14 17 -12 25 5 28 28 4 28 -12 0 -21 -6 -21 -16z"/>
<path d="M9490 8549 c0 -5 5 -7 10 -4 6 3 10 8 10 11 0 2 -4 4 -10 4 -5 0 -10
-5 -10 -11z"/>
<path d="M7440 8541 c0 -16 20 -23 46 -17 36 9 29 26 -11 26 -19 0 -35 -4 -35
-9z"/>
<path d="M7935 8520 c-9 -15 3 -30 25 -30 18 0 34 23 23 34 -10 10 -41 7 -48
-4z"/>
<path d="M9115 8519 c-9 -13 -7 -15 27 -23 33 -7 46 9 19 23 -25 14 -38 14
-46 0z"/>
<path d="M9430 8508 c1 -40 42 -52 66 -20 6 8 16 12 22 8 6 -3 13 -2 17 4 10
16 -25 25 -47 11 -13 -8 -24 -8 -38 -1 -15 8 -20 8 -20 -2z"/>
<path d="M7884 8496 c-4 -9 -4 -20 0 -23 3 -4 12 -1 18 5 9 9 9 15 0 24 -9 9
-13 7 -18 -6z"/>
<path d="M7685 8469 c-4 -6 -5 -13 -2 -16 7 -7 27 6 27 18 0 12 -17 12 -25 -2z"/>
<path d="M9324 8469 c-3 -6 1 -18 10 -27 16 -16 18 -16 31 2 8 10 12 23 9 27
-7 13 -42 11 -50 -2z"/>
<path d="M8365 8420 c3 -5 8 -10 11 -10 2 0 4 5 4 10 0 6 -5 10 -11 10 -5 0
-7 -4 -4 -10z"/>
<path d="M9230 8422 c0 -13 40 -33 52 -26 7 5 5 12 -7 21 -21 14 -45 17 -45 5z"/>
<path d="M9375 8401 c-3 -5 -1 -12 5 -16 12 -7 30 2 30 16 0 12 -27 12 -35 0z"/>
<path d="M8895 8390 c-3 -4 7 -11 21 -14 35 -9 39 -4 8 11 -13 6 -26 8 -29 3z"/>
<path d="M9256 8353 c-9 -9 -7 -33 3 -33 12 0 22 28 12 34 -5 3 -11 3 -15 -1z"/>
<path d="M7960 8316 c0 -8 5 -18 10 -21 6 -3 10 1 10 9 0 8 -4 18 -10 21 -5 3
-10 -1 -10 -9z"/>
<path d="M8662 8318 c3 -7 13 -15 22 -16 12 -3 17 1 14 10 -3 7 -13 15 -22 16
-12 3 -17 -1 -14 -10z"/>
<path d="M8435 8230 c-3 -5 1 -10 9 -10 9 0 16 5 16 10 0 6 -4 10 -9 10 -6 0
-13 -4 -16 -10z"/>
<path d="M6363 15671 c-27 -23 -31 -54 -6 -49 16 3 51 68 36 68 -5 -1 -18 -9
-30 -19z"/>
<path d="M10386 14437 c3 -10 9 -15 12 -12 3 3 0 11 -7 18 -10 9 -11 8 -5 -6z"/>
<path d="M10285 14370 c4 -6 11 -8 16 -5 14 9 11 15 -7 15 -8 0 -12 -5 -9 -10z"/>
<path d="M10244 14306 c-16 -17 -24 -46 -13 -46 5 0 14 12 20 26 11 30 9 37
-7 20z"/>
<path d="M10388 14213 c7 -3 16 -2 19 1 4 3 -2 6 -13 5 -11 0 -14 -3 -6 -6z"/>
<path d="M10201 14194 c0 -11 3 -14 6 -6 3 7 2 16 -1 19 -3 4 -6 -2 -5 -13z"/>
<path d="M8822 13683 c-6 -2 -10 -9 -6 -14 8 -14 21 -11 28 6 6 15 1 17 -22 8z"/>
<path d="M8457 13525 c3 -13 11 -30 19 -36 17 -14 17 -11 3 30 -13 37 -28 42
-22 6z"/>
<path d="M12940 9520 c0 -5 5 -10 10 -10 6 0 10 5 10 10 0 6 -4 10 -10 10 -5
0 -10 -4 -10 -10z"/>
<path d="M12977 9274 c-13 -13 -7 -24 14 -24 11 0 19 5 17 12 -5 14 -22 21
-31 12z"/>
<path d="M12906 9171 c-9 -10 -14 -25 -10 -35 8 -21 11 -21 39 11 16 20 20 30
12 35 -17 11 -22 10 -41 -11z"/>
<path d="M12857 9091 c-9 -16 -17 -39 -17 -50 0 -13 -6 -21 -16 -21 -12 0 -15
-6 -10 -22 3 -13 6 -31 6 -42 0 -16 3 -15 21 8 12 15 27 25 35 22 11 -4 21 10
29 44 1 3 5 18 10 33 6 22 3 31 -11 42 -26 20 -27 19 -47 -14z"/>
<path d="M12162 8439 c2 -6 8 -10 13 -10 5 0 11 4 13 10 2 6 -4 11 -13 11 -9
0 -15 -5 -13 -11z"/>
<path d="M12050 8390 c0 -21 34 -45 50 -35 19 11 10 35 -16 45 -34 13 -34 13
-34 -10z"/>
<path d="M11916 8275 c4 -8 10 -15 15 -15 4 0 6 7 3 15 -4 8 -10 15 -15 15 -4
0 -6 -7 -3 -15z"/>
<path d="M11985 8270 c-7 -12 2 -30 16 -30 12 0 12 27 0 35 -5 3 -12 1 -16 -5z"/>
<path d="M12020 8190 c11 -20 31 -26 43 -13 11 10 -13 33 -35 33 -16 0 -17 -3
-8 -20z"/>
<path d="M11613 8167 c-34 -10 -50 -34 -34 -50 14 -14 37 -2 57 28 21 31 18
34 -23 22z"/>
<path d="M11782 8161 c4 -13 18 -16 19 -4 0 4 -5 9 -11 12 -7 2 -11 -2 -8 -8z"/>
<path d="M11734 8127 c-6 -17 2 -37 16 -37 15 0 19 29 5 40 -12 10 -16 9 -21
-3z"/>
<path d="M11443 8088 c-34 -17 -30 -59 8 -87 36 -27 48 -21 29 15 -11 20 -12
29 -2 45 12 19 9 40 -6 38 -4 0 -17 -5 -29 -11z"/>
<path d="M11635 8080 c3 -5 8 -10 11 -10 2 0 4 5 4 10 0 6 -5 10 -11 10 -5 0
-7 -4 -4 -10z"/>
<path d="M11620 7986 c0 -26 36 -60 55 -52 17 6 16 9 -10 36 -31 33 -45 38
-45 16z"/>
<path d="M11874 7929 c-3 -6 -1 -16 5 -22 8 -8 11 -5 11 11 0 24 -5 28 -16 11z"/>
<path d="M11372 7911 c4 -13 18 -16 19 -4 0 4 -5 9 -11 12 -7 2 -11 -2 -8 -8z"/>
<path d="M11610 7874 c0 -9 5 -14 12 -12 18 6 21 28 4 28 -9 0 -16 -7 -16 -16z"/>
<path d="M11239 7826 c-1 -3 -2 -12 -3 -18 0 -7 -17 -21 -36 -30 -19 -10 -35
-21 -35 -25 0 -18 32 -50 63 -63 19 -7 40 -20 48 -28 8 -8 18 -11 22 -8 3 4 2
10 -3 14 -18 13 -44 68 -42 90 1 14 8 22 19 22 20 0 34 18 22 30 -12 11 -54
23 -55 16z"/>
<path d="M11595 7820 c3 -5 10 -10 16 -10 5 0 9 5 9 10 0 6 -7 10 -16 10 -8 0
-12 -4 -9 -10z"/>
<path d="M11300 7735 c0 -18 5 -25 18 -25 26 0 33 10 21 31 -14 28 -39 24 -39
-6z"/>
<path d="M10950 7486 c0 -17 27 -29 35 -16 4 6 3 15 0 20 -9 15 -35 12 -35 -4z"/>
<path d="M10830 7320 c19 -13 30 -13 30 0 0 6 -10 10 -22 10 -19 0 -20 -2 -8
-10z"/>
<path d="M10737 7273 c-3 -5 -2 -15 2 -22 5 -7 11 -9 14 -4 3 5 2 15 -2 22 -5
7 -11 9 -14 4z"/>
<path d="M10962 7268 c3 -7 15 -15 27 -16 16 -3 22 1 19 10 -3 7 -15 15 -27
16 -16 3 -22 -1 -19 -10z"/>
<path d="M9872 6828 c5 -15 28 -18 29 -3 0 6 -7 12 -17 13 -10 3 -15 -1 -12
-10z"/>
<path d="M10010 6831 c0 -5 5 -13 10 -16 6 -3 10 -2 10 4 0 5 -4 13 -10 16 -5
3 -10 2 -10 -4z"/>
<path d="M10023 6787 c-3 -5 3 -18 14 -29 20 -19 20 -19 49 5 l28 25 -43 4
c-23 2 -45 0 -48 -5z"/>
<path d="M9197 6686 c-4 -10 -7 -20 -7 -22 0 -9 49 -3 55 6 3 6 -3 10 -14 10
-10 0 -21 5 -23 12 -3 7 -7 5 -11 -6z"/>
<path d="M9350 6680 c-15 -10 -13 -10 35 -10 3 0 5 3 6 8 0 11 -25 13 -41 2z"/>
<path d="M10090 6640 c0 -5 7 -10 15 -10 8 0 15 5 15 10 0 6 -7 10 -15 10 -8
0 -15 -4 -15 -10z"/>
<path d="M9645 6540 c-3 -6 1 -13 10 -16 19 -8 30 0 20 15 -8 14 -22 14 -30 1z"/>
<path d="M9405 6430 c3 -5 8 -10 11 -10 2 0 4 5 4 10 0 6 -5 10 -11 10 -5 0
-7 -4 -4 -10z"/>
</g>
</svg>
